<?xml version="1.0" encoding="UTF-8"?>
<svg width="22px" height="18px" viewBox="0 0 22 18" version="1.1" xmlns="http://www.w3.org/2000/svg" xmlns:xlink="http://www.w3.org/1999/xlink">
    <!-- Generator: Sketch 55.1 (78136) - https://sketchapp.com -->
    <title>验证码</title>
    <desc>Created with Sketch.</desc>
    <g id="页面-1" stroke="none" stroke-width="1" fill="none" fill-rule="evenodd">
        <g id="01-登录状态" transform="translate(-811.000000, -520.000000)" fill-rule="nonzero">
            <g id="登录框" transform="translate(1.000000, 0.000000)">
                <g id="sign-in-" transform="translate(737.000000, 302.000000)">
                    <g id="验证码" transform="translate(72.000000, 215.000000)">
                        <g>
                            <rect id="矩形" fill="#000000" opacity="0" x="0" y="0" width="24" height="24"></rect>
                            <path d="M2.0625,4.5375 L21.9375,4.5375 C22.2375,4.5375 22.5,4.275 22.5,3.975 C22.5,3.675 22.2375,3.4125 21.9375,3.4125 L2.0625,3.4125 C1.7625,3.4125 1.5,3.675 1.5,3.975 C1.5,4.275 1.7625,4.5375 2.0625,4.5375 Z M21.9375,19.4625 L2.0625,19.4625 C1.7625,19.4625 1.5,19.725 1.5,20.025 C1.5,20.325 1.7625,20.5875 2.0625,20.5875 L21.9375,20.5875 C22.2375,20.5875 22.5,20.325 22.5,20.025 C22.5,19.725 22.2375,19.4625 21.9375,19.4625 Z M3.75,9.1125 L5.025,9.1125 L5.025,15.1125 L3.75,15.1125 L3.75,9.1125 Z M9.375,12.9 C9.45,12.7875 9.5625,12.75 9.7125,12.7125 C9.8625,12.675 10.0875,12.675 10.3875,12.675 L11.25,12.675 C11.8875,12.675 12.3375,12.6 12.6375,12.4125 C12.8625,12.3 13.0125,12.075 13.125,11.8125 C13.2375,11.55 13.3125,11.25 13.3125,10.875 C13.3125,10.575 13.275,10.3125 13.1625,10.0875 C13.05,9.8625 12.9375,9.6375 12.75,9.525 C12.45,9.2625 11.925,9.15 11.1375,9.15 L8.025,9.15 L8.025,10.2375 L10.875,10.2375 C11.2125,10.2375 11.4375,10.275 11.5875,10.3875 C11.775,10.5 11.8875,10.725 11.8875,10.9875 C11.8875,11.25 11.775,11.4375 11.55,11.55 C11.4,11.625 11.175,11.6625 10.8375,11.6625 L9.8625,11.6625 C9.45,11.6625 9.15,11.7 8.9625,11.7375 C8.775,11.775 8.5875,11.8875 8.4375,12.0375 C8.1,12.375 7.9125,12.9 7.95,13.575 L7.95,15.15 L13.125,15.15 L13.125,14.1 L9.225,14.1 L9.225,13.5 C9.225,13.2 9.2625,12.975 9.375,12.9 Z M20.775,10.7625 C20.775,10.425 20.7,10.125 20.5125,9.8625 C20.325,9.5625 20.1,9.3375 19.7625,9.225 C19.6125,9.1875 19.5,9.15 19.3875,9.15 C19.275,9.15 19.0125,9.1125 18.6375,9.1125 L15.825,9.1125 L15.825,10.2 L18.4125,10.2 C18.6375,10.2 18.7875,10.2 18.8625,10.2375 C18.9375,10.2375 19.0125,10.275 19.0875,10.35 C19.275,10.4625 19.35,10.65 19.35,10.9125 C19.35,11.1375 19.275,11.325 19.125,11.4375 C19.0125,11.55 18.75,11.5875 18.375,11.5875 L16.35,11.5875 L16.35,12.6375 L18.375,12.6375 C18.675,12.6375 18.9,12.675 19.05,12.75 C19.2375,12.8625 19.35,13.0875 19.35,13.3875 C19.35,13.65 19.275,13.8375 19.125,13.95 C19.0125,14.0625 18.75,14.1 18.4125,14.1 L15.825,14.1 L15.825,15.15 L18.4875,15.15 C18.9375,15.15 19.275,15.1125 19.5,15.075 C19.725,15.0375 19.95,14.9625 20.1375,14.8125 C20.5875,14.55 20.775,14.1 20.775,13.5375 C20.775,12.9375 20.5125,12.45 19.9875,12.075 C20.5125,11.7375 20.775,11.325 20.775,10.7625 L20.775,10.7625 Z" id="形状" fill="#BBBEC3"></path>
                        </g>
                    </g>
                </g>
            </g>
        </g>
    </g>
</svg>