<?xml version="1.0" encoding="UTF-8"?>
<svg width="18px" height="19px" viewBox="0 0 18 19" version="1.1" xmlns="http://www.w3.org/2000/svg" xmlns:xlink="http://www.w3.org/1999/xlink">
    <!-- Generator: Sketch 55.1 (78136) - https://sketchapp.com -->
    <title>密码</title>
    <desc>Created with Sketch.</desc>
    <g id="页面-1" stroke="none" stroke-width="1" fill="none" fill-rule="evenodd">
        <g id="01-登录状态" transform="translate(-813.000000, -465.000000)" fill="#BBBEC3" fill-rule="nonzero">
            <g id="登录框" transform="translate(1.000000, 0.000000)">
                <g id="sign-in-" transform="translate(737.000000, 302.000000)">
                    <g id="密码" transform="translate(72.000000, 162.000000)">
                        <path d="M18.75,18.25 C19.1642136,18.25 19.5,17.9142136 19.5,17.5 L19.5,10 C19.5,9.58578644 19.1642136,9.25 18.75,9.25 L5.25,9.25 C4.83578644,9.25 4.5,9.58578644 4.5,10 L4.5,17.5 C4.5,17.9142136 4.83578644,18.25 5.25,18.25 L18.75,18.25 Z M18.75,19.75 L5.25,19.75 C4.00735931,19.75 3,18.7426407 3,17.5 L3,10 C3,8.75735931 4.00735931,7.75 5.25,7.75 L18.75,7.75 C19.9926407,7.75 21,8.75735931 21,10 L21,17.5 C21,18.7426407 19.9926407,19.75 18.75,19.75 L18.75,19.75 Z M11.25,12.25 C11.25,11.8357864 11.5857864,11.5 12,11.5 C12.4142136,11.5 12.75,11.8357864 12.75,12.25 L12.75,15.25 C12.75,15.6642136 12.4142136,16 12,16 C11.5857864,16 11.25,15.6642136 11.25,15.25 L11.25,12.25 Z M8.25,8.5 C8.25,8.91421356 7.91421356,9.25 7.5,9.25 C7.08578644,9.25 6.75,8.91421356 6.75,8.5 L6.75,6.25 C6.75,3.35050506 9.10050506,1 12,1 C14.8994949,1 17.25,3.35050506 17.25,6.25 L17.25,8.5 C17.25,8.91421356 16.9142136,9.25 16.5,9.25 C16.0857864,9.25 15.75,8.91421356 15.75,8.5 L15.75,6.25 C15.75,4.17893219 14.0710678,2.5 12,2.5 C9.92893219,2.5 8.25,4.17893219 8.25,6.25 L8.25,8.5 Z"></path>
                    </g>
                </g>
            </g>
        </g>
    </g>
</svg>