<?xml version="1.0" encoding="UTF-8"?>
<svg width="16px" height="18px" viewBox="0 0 16 18" version="1.1" xmlns="http://www.w3.org/2000/svg" xmlns:xlink="http://www.w3.org/1999/xlink">
    <!-- Generator: Sketch 55.1 (78136) - https://sketchapp.com -->
    <title>用户</title>
    <desc>Created with Sketch.</desc>
    <g id="页面-1" stroke="none" stroke-width="1" fill="none" fill-rule="evenodd">
        <g id="01-登录状态" transform="translate(-814.000000, -410.000000)" fill-rule="nonzero">
            <g id="登录框" transform="translate(1.000000, 0.000000)">
                <g id="sign-in-" transform="translate(737.000000, 302.000000)">
                    <g id="用户名" transform="translate(72.000000, 105.000000)">
                        <g id="用户">
                            <rect id="矩形" fill="#000000" opacity="0" x="0" y="0" width="24" height="24"></rect>
                            <path d="M12,10.4817891 C9.93225,10.4817891 8.25,8.79953906 8.25,6.73178906 C8.25,4.66403906 9.93225,2.98178906 12,2.98178906 C14.0677734,2.98178906 15.75,4.66403906 15.75,6.73178906 C15.75,8.79953906 14.0677734,10.4817891 12,10.4817891 Z M12,4.48178906 C10.7593359,4.48178906 9.75,5.491125 9.75,6.73178906 C9.75,7.97245313 10.7593359,8.98178906 12,8.98178906 C13.2406641,8.98178906 14.25,7.97245313 14.25,6.73178906 C14.25,5.491125 13.2406641,4.48178906 12,4.48178906 Z M10.6617422,20.4045469 C8.39782031,20.4045469 6.327375,20.3154375 5.24151562,19.2337266 C4.76503125,18.7590469 4.5234375,18.1444688 4.5234375,17.4070547 C4.5234375,16.66575 4.76360156,15.9348984 5.23727344,15.2347266 C5.65863281,14.6119219 6.24292969,14.0454844 6.97394531,13.5511406 C8.4200625,12.5732813 10.2519844,12.0124219 12,12.0124219 C13.7472656,12.0124219 15.5753906,12.5735859 17.0156719,13.5520547 C17.7434062,14.0464453 18.3249141,14.6131406 18.7440937,15.2364375 C19.2145781,15.9360234 19.453125,16.6663125 19.453125,17.4070547 C19.453125,18.1465547 19.2113203,18.762375 18.7344375,19.2374531 C17.5458281,20.4215391 15.1761094,20.4123281 12.6669375,20.4028359 C12.2222986,20.4011172 11.7776546,20.4011094 11.3330156,20.4028125 C11.1078984,20.4036797 10.8838828,20.4045469 10.6617422,20.4045469 L10.6617422,20.4045469 Z M12,18.9011016 C12.2242266,18.9011016 12.4488047,18.9019688 12.6726797,18.9028125 C13.8333047,18.9072891 14.9293359,18.9114844 15.8556797,18.7997813 C16.7561016,18.6911953 17.3684766,18.4809375 17.6758125,18.17475 C17.7948516,18.0561563 17.953125,17.8475625 17.953125,17.4070547 C17.953125,16.5143438 17.3041875,15.5614922 16.1727422,14.7928359 C14.9749922,13.9791094 13.4540625,13.5124219 12,13.5124219 C9.03963281,13.5124219 6.0234375,15.4779375 6.0234375,17.4070547 C6.0234375,17.84475 6.18135937,18.0526875 6.30016406,18.1710234 C7.05121875,18.9191953 9.32301563,18.9104766 11.3272969,18.9028359 C11.5512656,18.9019688 11.7758672,18.9011016 12,18.9011016 L12,18.9011016 Z" id="形状" fill="#BBBEC3"></path>
                        </g>
                    </g>
                </g>
            </g>
        </g>
    </g>
</svg>