<?xml version="1.0" encoding="UTF-8"?>
<svg width="52px" height="30px" viewBox="0 0 52 30" version="1.1" xmlns="http://www.w3.org/2000/svg" xmlns:xlink="http://www.w3.org/1999/xlink">
    <!-- Generator: Sketch 55.1 (78136) - https://sketchapp.com -->
    <title>01-首页</title>
    <desc>Created with Sketch.</desc>
    <g id="页面-1" stroke="none" stroke-width="1" fill="none" fill-rule="evenodd" opacity="0.197730655" stroke-linecap="round" stroke-linejoin="round">
        <g id="01-首页" transform="translate(-1749.000000, -499.000000)" stroke="#FFFFFF">
            <g id="底纹" style="mix-blend-mode: screen;" transform="translate(-33.000000, -112.000000)">
                <g id="分组-copy-3" opacity="0.300000012" transform="translate(930.000000, 0.000000)">
                    <path d="M903.3786,923.603364 L903.3786,0.239440319" id="Stroke-179"></path>
                    <path d="M877.57392,923.603364 L877.57392,0.239440319" id="Stroke-181"></path>
                    <path d="M851.77044,923.603364 L851.77044,0.239440319" id="Stroke-183"></path>
                    <path d="M51.84792,923.603364 L929.18232,417.242271" id="Stroke-251"></path>
                    <path d="M103.4556,923.603364 L929.1816,447.028358" id="Stroke-253"></path>
                    <path d="M155.06376,923.603364 L929.18256,476.814446" id="Stroke-255"></path>
                    <path d="M206.67132,923.603364 L929.18172,506.600534" id="Stroke-257"></path>
                    <path d="M258.2796,923.603364 L929.1816,536.385422" id="Stroke-259"></path>
                    <path d="M309.88716,923.603364 L929.18196,566.17151" id="Stroke-261"></path>
                    <path d="M361.49544,923.603364 L929.18184,595.957598" id="Stroke-263"></path>
                    <path d="M413.1036,923.603364 L929.1816,625.743686" id="Stroke-265"></path>
                    <path d="M0.23976,685.316221 L929.18256,149.16904" id="Stroke-303"></path>
                    <path d="M0.23976,655.530134 L929.18256,119.382952" id="Stroke-305"></path>
                    <path d="M0.23976,625.743926 L929.18256,89.5967441" id="Stroke-307"></path>
                    <path d="M877.57392,923.603364 L0.23952,417.242271" id="Stroke-359"></path>
                    <path d="M929.18208,923.603364 L0.23928,387.456183" id="Stroke-361"></path>
                    <path d="M929.18208,893.817157 L0.23928,357.669975" id="Stroke-363"></path>
                    <path d="M929.18208,864.031069 L0.23928,327.883887" id="Stroke-365"></path>
                    <path d="M929.18208,834.244861 L0.23928,298.098879" id="Stroke-367"></path>
                    <path d="M929.18208,804.459853 L0.23928,268.312671" id="Stroke-369"></path>
                    <path d="M929.18208,774.673645 L0.23928,238.526463" id="Stroke-371"></path>
                    <path d="M929.18208,744.887437 L0.23928,208.740256" id="Stroke-373"></path>
                    <path d="M929.18208,715.10123 L0.23928,178.955248" id="Stroke-375"></path>
                    <path d="M929.18208,685.316221 L0.23928,149.16904" id="Stroke-377"></path>
                    <path d="M929.18208,655.530134 L0.23928,119.382952" id="Stroke-379"></path>
                    <path d="M929.18208,625.743926 L0.23928,89.5967441" id="Stroke-387"></path>
                    <path d="M0.23976,804.459853 L929.18256,268.312671" id="Stroke-389"></path>
                    <path d="M0.23976,774.673645 L929.18256,238.526463" id="Stroke-391"></path>
                    <path d="M0.23976,744.887437 L929.18256,208.740256" id="Stroke-393"></path>
                    <path d="M0.23976,715.10123 L929.18256,178.955248" id="Stroke-395"></path>
                    <path d="M0.23976,834.244861 L929.18256,298.098879" id="Stroke-397"></path>
                    <path d="M0.23976,864.031069 L929.18256,327.883887" id="Stroke-399"></path>
                    <path d="M0.23976,893.817157 L929.18256,357.669975" id="Stroke-401"></path>
                    <path d="M0.23976,923.603364 L929.18256,387.456183" id="Stroke-403"></path>
                </g>
            </g>
        </g>
    </g>
</svg>