<?xml version="1.0" encoding="UTF-8"?>
<svg width="40px" height="40px" viewBox="0 0 40 40" version="1.1" xmlns="http://www.w3.org/2000/svg" xmlns:xlink="http://www.w3.org/1999/xlink">
    <!-- Generator: Sketch 55.1 (78136) - https://sketchapp.com -->
    <title>ATA-default</title>
    <desc>Created with Sketch.</desc>
    <g id="页面-1" stroke="none" stroke-width="1" fill="none" fill-rule="evenodd">
        <g id="02-总体情况-展品概况-历届数据对比" transform="translate(-750.000000, -348.000000)">
            <g id="历届对比">
                <g id="分组-17" transform="translate(506.000000, 311.000000)">
                    <g id="分组-13" transform="translate(244.000000, 37.000000)">
                        <g id="分组-5">
                            <g id="ATA-default">
                                <circle id="椭圆形" fill="#262F5E" cx="20" cy="20" r="20"></circle>
                                <path d="M13,10 L27,10 C27.5522847,10 28,10.4477153 28,11 L28,29 C28,29.5522847 27.5522847,30 27,30 L13,30 C12.4477153,30 12,29.5522847 12,29 L12,11 C12,10.4477153 12.4477153,10 13,10 Z M20,14 C19.4477153,14 19,14.4477153 19,15 C19,15.5522847 19.4477153,16 20,16 L24,16 C24.5522847,16 25,15.5522847 25,15 C25,14.4477153 24.5522847,14 24,14 L20,14 Z M16,14 C15.4477153,14 15,14.4477153 15,15 C15,15.5522847 15.4477153,16 16,16 C16.5522847,16 17,15.5522847 17,15 C17,14.4477153 16.5522847,14 16,14 Z M16,19 C15.4477153,19 15,19.4477153 15,20 C15,20.5522847 15.4477153,21 16,21 L24,21 C24.5522847,21 25,20.5522847 25,20 C25,19.4477153 24.5522847,19 24,19 L16,19 Z M16,24 C15.4477153,24 15,24.4477153 15,25 C15,25.5522847 15.4477153,26 16,26 L24,26 C24.5522847,26 25,25.5522847 25,25 C25,24.4477153 24.5522847,24 24,24 L16,24 Z" id="形状结合" fill="#FFFFFF" opacity="0.5"></path>
                            </g>
                        </g>
                    </g>
                </g>
            </g>
        </g>
    </g>
</svg>