<?xml version="1.0" encoding="UTF-8"?>
<svg width="40px" height="40px" viewBox="0 0 40 40" version="1.1" xmlns="http://www.w3.org/2000/svg" xmlns:xlink="http://www.w3.org/1999/xlink">
    <!-- Generator: Sketch 55.1 (78136) - https://sketchapp.com -->
    <title>保税展示</title>
    <desc>Created with Sketch.</desc>
    <g id="页面-1" stroke="none" stroke-width="1" fill="none" fill-rule="evenodd">
        <g id="02-总体情况-展品概况" transform="translate(-996.000000, -260.000000)">
            <g id="保税展示" transform="translate(972.000000, 248.000000)">
                <g id="txt" transform="translate(24.000000, 12.000000)">
                    <g id="编组-5">
                        <g id="保税展示">
                            <circle id="椭圆形" fill="#27D980" cx="20" cy="20" r="20"></circle>
                            <path d="M20.3191634,10 L20.3191634,13.3317988 L23.0517779,14.3029174 L23.0517779,10.9818573 L20.3191634,10 Z M13,12.4134225 L13,15.719745 L15.1465794,14.9259256 L15.1465794,17.356267 L13,18.1272668 L13,21.4590656 L15.1465794,20.6649945 L15.1465794,29.6996194 L17.1192109,30.3135389 L17.1192109,19.9244767 L19.323792,19.1062717 L19.323792,15.8558795 L17.1192109,16.6476295 L17.1192109,14.1817723 L19.323792,13.3624766 L19.323792,10.0504771 L13,12.4134225 Z M24.2695847,14.7355107 L26.6503488,15.5803666 L26.6503488,12.2718348 L24.2695847,11.4040475 L24.2695847,14.7356226 L24.2695847,14.7355107 Z M20.3191634,20.3485406 L22.6933364,21.1739607 L22.6933364,30.2615516 L26.6503488,29.0309721 L26.6503488,23.4548562 L25.0579954,22.8897639 L25.0579954,27.4189196 L24.5135128,27.5621293 L24.5135128,21.8151742 L26.6503488,22.5778963 L26.6503488,16.5189617 L20.3191634,14.2476582 L20.3191634,20.3485406 Z M22.5501662,18.8480412 L22.5501662,17.2167767 L24.702219,18.006681 L24.702219,19.6382811 L22.5501662,18.8480412 Z M17.5571181,20.7492256 L17.5571181,30.4299859 L19.323792,31 L19.323792,20.0897509 L17.5571181,20.7492256 Z M20.3191634,31 L22.1839873,30.4191633 L22.1839873,21.8705732 L20.3191634,21.2059529 L20.3191634,31 Z M13,22.448865 L13,29.031084 L14.6935699,29.5442729 L14.6935699,21.8204316 L13,22.448865 Z" id="Fill-1" fill="#FFFFFF"></path>
                        </g>
                    </g>
                </g>
            </g>
        </g>
    </g>
</svg>