<?xml version="1.0" encoding="UTF-8"?>
<svg width="40px" height="40px" viewBox="0 0 40 40" version="1.1" xmlns="http://www.w3.org/2000/svg" xmlns:xlink="http://www.w3.org/1999/xlink">
    <!-- Generator: Sketch 55.1 (78136) - https://sketchapp.com -->
    <title>一般贸易等</title>
    <desc>Created with Sketch.</desc>
    <g id="页面-1" stroke="none" stroke-width="1" fill="none" fill-rule="evenodd">
        <g id="02-总体情况-展品概况" transform="translate(-1362.000000, -260.000000)">
            <g id="一般贸易等" transform="translate(1338.000000, 248.000000)">
                <g id="txt" transform="translate(24.000000, 12.000000)">
                    <g id="编组-5">
                        <g id="一般贸易等">
                            <circle id="椭圆形" fill="#F22C67" cx="20" cy="20" r="20"></circle>
                            <path d="M30.3680692,18.99276 C29.6272093,18.9996944 25.9944545,16.9427426 25.8801349,16.835688 C25.6039647,16.5776357 25.7083637,16.2565865 25.9897568,16.2126719 C26.2714126,16.1686427 27.8519292,15.9844586 27.8519292,15.9844586 C26.8808253,13.4384947 24.7128962,11.4049163 21.8674527,10.7459102 C17.3265019,9.69361731 12.6305573,12.678356 11.5924607,17.2337524 C11.5834447,17.2726319 11.5208869,17.7370975 11.144636,17.7222209 C10.8899991,17.7122936 10.0557111,17.3871819 9.75424351,17.2485146 C9.40979663,17.0901643 9.316777,17.1310464 9.42108853,16.6214645 C10.6023327,10.8302778 16.6512051,6.927279 22.457287,8.2627428 C27.2751958,9.37076579 30.621889,13.470222 30.989941,18.1406261 C31.0515942,18.7667893 30.7264048,18.9889661 30.3680692,18.99276 Z M22.7850732,20.2620625 C23.0140626,20.261948 23.2338025,20.351122 23.3957698,20.50993 C23.5577372,20.6687095 23.6486852,20.8841918 23.6485686,21.1086859 C23.648335,21.5761554 23.2618426,21.955109 22.7850732,21.9553379 L21.0577618,21.9553379 L21.0577618,23.0138674 C21.0578785,23.2946067 20.9441425,23.5638165 20.7417052,23.7622765 C20.5391803,23.9607651 20.2645857,24.0722826 19.9782907,24.0722826 C19.6919956,24.0722826 19.417401,23.9607651 19.2149929,23.7622765 C19.0125556,23.5638165 18.8989362,23.2946067 18.899053,23.0138674 L18.899053,21.9553379 L17.1716248,21.9553379 C16.6947388,21.9553379 16.3080129,21.5762698 16.3080129,21.1085714 C16.3080129,20.6409016 16.6947388,20.2618336 17.1716248,20.2618336 L18.8988195,20.2618336 L18.8988195,19.4148383 L17.1716248,19.4148383 C16.6947388,19.4147238 16.3081296,19.0357702 16.3078962,18.5682149 C16.3078962,18.3435777 16.3988442,18.128124 16.5608115,17.9692016 C16.7227789,17.8103935 16.9425188,17.7212196 17.1716248,17.721334 L18.8988195,17.721334 L18.8988195,17.6633437 L16.9824052,15.7851976 C16.6543855,15.4503875 16.659871,14.9198925 16.9946016,14.5915767 C17.3293614,14.2632323 17.87041,14.257768 18.2119974,14.5791605 L19.9637017,16.2961526 L21.7220293,14.5722371 C22.0617785,14.2398874 22.6119598,14.2398874 22.9517091,14.5722371 C23.1149311,14.7321609 23.206696,14.9490736 23.206696,15.1752557 C23.206696,15.4014377 23.1149311,15.6183504 22.9517091,15.7781598 L21.0576451,17.6356217 L21.0576451,17.721992 L22.7849565,17.721992 C23.0140626,17.721992 23.2336857,17.8111946 23.3956531,17.969974 C23.5576205,18.128782 23.6485686,18.3442357 23.6484517,18.5687584 C23.648335,19.0363424 23.2618426,19.415296 22.7849565,19.4155249 L21.0576451,19.4155249 L21.0576451,20.2623772 L22.7850732,20.2623772 L22.7850732,20.2620625 Z M14.1214682,21.456799 C14.5002285,21.6945105 14.4089303,22.1714782 13.9926763,22.2140482 C13.5764514,22.256418 12.2725427,22.3688224 12.2725427,22.3688224 C13.3062043,24.743705 15.4008673,26.6162439 18.1089697,27.2434083 C22.650008,28.2952434 27.2943366,25.4547794 28.3324333,20.8993831 C28.3536458,20.8061753 28.3530622,20.820823 28.3900016,20.6198741 C28.4273787,20.419297 28.4872229,20.1140972 28.8870497,20.2497606 C29.2871099,20.3856529 30.2620653,20.6670501 30.5656921,20.7461824 C30.8695815,20.8260585 30.8352681,20.9436411 30.7975409,21.220232 C30.7856946,21.3043708 30.7680127,21.3815004 30.7498931,21.462292 C29.3908379,27.3853371 23.4742879,31.0802347 17.5348624,29.7137303 C12.7222931,28.6072522 9.37755488,24.5166075 9.00311296,19.8531553 C8.95240151,19.0516482 9.52968924,18.8882627 10.1201071,19.1945783 C10.5844466,19.4354081 13.7425037,21.2194309 14.1214682,21.456799 Z" id="Fill-1" fill="#FFFFFF"></path>
                        </g>
                    </g>
                </g>
            </g>
        </g>
    </g>
</svg>