<?xml version="1.0" encoding="UTF-8"?>
<svg width="40px" height="40px" viewBox="0 0 40 40" version="1.1" xmlns="http://www.w3.org/2000/svg" xmlns:xlink="http://www.w3.org/1999/xlink">
    <!-- Generator: Sketch 55.1 (78136) - https://sketchapp.com -->
    <title>展览品-default</title>
    <desc>Created with Sketch.</desc>
    <g id="页面-1" stroke="none" stroke-width="1" fill="none" fill-rule="evenodd">
        <g id="02-总体情况-展品概况-历届数据对比" transform="translate(-872.000000, -348.000000)">
            <g id="历届对比">
                <g id="分组-17" transform="translate(506.000000, 311.000000)">
                    <g id="分组-13" transform="translate(244.000000, 37.000000)">
                        <g id="分组-7" transform="translate(118.000000, 0.000000)">
                            <g id="展览品-default" transform="translate(4.000000, 0.000000)">
                                <circle id="椭圆形" fill="#262F5E" cx="20" cy="20" r="20"></circle>
                                <path d="M16.6296296,14.5185185 L16.6296296,20.1481481 L18.6901444,18.037037 L20.8518519,20.1481481 L20.8518519,14.5185185 L24.8148148,14.5185185 C25.7352894,14.5185185 26.4814815,15.2647106 26.4814815,16.1851852 L26.4814815,28.3333333 C26.4814815,29.2538079 25.7352894,30 24.8148148,30 L12.6666667,30 C11.7461921,30 11,29.2538079 11,28.3333333 L11,16.1851852 C11,15.2647106 11.7461921,14.5185185 12.6666667,14.5185185 L16.6296296,14.5185185 Z M27.8888889,26.4814815 L27.8888889,14.7777778 C27.8888889,13.8573032 27.1426968,13.1111111 26.2222222,13.1111111 L14.5185185,13.1111111 L14.5185185,12.6666667 C14.5185185,11.7461921 15.2647106,11 16.1851852,11 L28.3333333,11 C29.2538079,11 30,11.7461921 30,12.6666667 L30,24.8148148 C30,25.7352894 29.2538079,26.4814815 28.3333333,26.4814815 L27.8888889,26.4814815 Z" id="形状结合" fill="#FFFFFF" opacity="0.5"></path>
                            </g>
                        </g>
                    </g>
                </g>
            </g>
        </g>
    </g>
</svg>