<?xml version="1.0" encoding="UTF-8"?>
<svg width="24px" height="19px" viewBox="0 0 24 19" version="1.1" xmlns="http://www.w3.org/2000/svg" xmlns:xlink="http://www.w3.org/1999/xlink">
    <!-- Generator: Sketch 55.1 (78136) - https://sketchapp.com -->
    <title>button-nav-default</title>
    <desc>Created with Sketch.</desc>
    <g id="页面-1" stroke="none" stroke-width="1" fill="none" fill-rule="evenodd">
        <g id="下拉菜单" transform="translate(-1882.000000, -14.000000)" fill="#FFFFFF">
            <g id="button-nav-default" transform="translate(1868.000000, 0.000000)">
                <g transform="translate(14.444444, 14.444444)" id="合并形状">
                    <path d="M6.44268078,0 L21.8042328,0 C22.5260018,-5.76676017e-16 23.1111111,0.585109348 23.1111111,1.30687831 C23.1111111,2.02864727 22.5260018,2.61375661 21.8042328,2.61375661 L6.44268078,2.61375661 C5.72091182,2.61375661 5.13580247,2.02864727 5.13580247,1.30687831 C5.13580247,0.585109348 5.72091182,1.32586807e-16 6.44268078,0 Z M1.28395062,0 C1.99305696,-1.30260722e-16 2.56790123,0.574844272 2.56790123,1.28395062 L2.56790123,1.329806 C2.56790123,2.03891234 1.99305696,2.61375661 1.28395062,2.61375661 C0.574844272,2.61375661 3.08885087e-16,2.03891234 0,1.329806 L0,1.28395062 C3.57248728e-16,0.574844272 0.574844272,1.30260722e-16 1.28395062,0 Z M1.30687831,7.84126984 L21.8042328,7.84126984 C22.5260018,7.84126984 23.1111111,8.42637919 23.1111111,9.14814815 C23.1111111,9.86991711 22.5260018,10.4550265 21.8042328,10.4550265 L1.30687831,10.4550265 C0.585109348,10.4550265 8.83912045e-17,9.86991711 0,9.14814815 C-8.83912045e-17,8.42637919 0.585109348,7.84126984 1.30687831,7.84126984 Z M1.30687831,15.6825397 L21.8042328,15.6825397 C22.5260018,15.6825397 23.1111111,16.267649 23.1111111,16.989418 C23.1111111,17.7111869 22.5260018,18.2962963 21.8042328,18.2962963 L1.30687831,18.2962963 C0.585109348,18.2962963 8.83912045e-17,17.7111869 0,16.989418 C-8.83912045e-17,16.267649 0.585109348,15.6825397 1.30687831,15.6825397 Z"></path>
                </g>
            </g>
        </g>
    </g>
</svg>