<?xml version="1.0" encoding="UTF-8"?>
<svg width="20px" height="20px" viewBox="0 0 20 20" version="1.1" xmlns="http://www.w3.org/2000/svg" xmlns:xlink="http://www.w3.org/1999/xlink">
    <!-- Generator: Sketch 55.1 (78136) - https://sketchapp.com -->
    <title>hyjb</title>
    <desc>Created with Sketch.</desc>
    <defs>
        <linearGradient x1="0.0597907271%" y1="0%" x2="99.9402093%" y2="100%" id="linearGradient-1">
            <stop stop-color="#14E1F9" offset="0%"></stop>
            <stop stop-color="#0026BD" offset="100%"></stop>
        </linearGradient>
    </defs>
    <g id="页面-1" stroke="none" stroke-width="1" fill="none" fill-rule="evenodd">
        <g id="下拉菜单" transform="translate(-664.000000, -276.000000)" fill="url(#linearGradient-1)">
            <g transform="translate(0.000000, -12.000000)" id="content">
                <g transform="translate(272.000000, 124.000000)">
                    <g id="展前通关" transform="translate(360.000000, 5.000000)">
                        <g id="list" transform="translate(11.000000, 49.000000)">
                            <g id="hyjb" transform="translate(21.000000, 110.000000)">
                                <path d="M9.84910233,2.63035907 L7.5961939,2.63035907 C6.80590664,2.63035907 6.15716338,3.267307 6.15716338,4.04579892 L6.15716338,13.387702 C6.15716338,14.1661939 6.79411131,14.8031418 7.5961939,14.8031418 L17.0324596,14.8031418 C17.8227469,14.8031418 18.4714901,14.1661939 18.4714901,13.387702 L18.4714901,4.04579892 C18.4714901,3.267307 17.8345422,2.63035907 17.0324596,2.63035907 L14.7795512,2.63035907 L14.7795512,9.70755835 L9.84910233,9.70755835 L9.84910233,2.63035907 Z M2.45342908,1.23850987 L0.613357271,1.23850987 C0.271292639,1.23850987 4.72510919e-13,0.967217235 4.72510919e-13,0.625152603 C4.72510919e-13,0.283087971 0.271292639,-3.26849658e-13 0.613357271,-3.26849658e-13 L3.07858169,-3.26849658e-13 C3.42064632,-3.26849658e-13 3.69193896,0.306678636 3.69193896,0.672333932 L3.69193896,14.1308079 C3.69193896,14.4964632 3.42064632,14.7913465 3.07858169,14.7913465 C2.73651706,14.7913465 2.46522442,14.4964632 2.46522442,14.1308079 L2.46522442,1.23850987 L2.45342908,1.23850987 Z M4.9186535,17.8699282 C4.9186535,18.8843268 4.09298025,19.7217953 3.06678636,19.7217953 C2.05238779,19.7217953 1.21491921,18.8961221 1.21491921,17.8699282 C1.21491921,16.8437343 2.04059246,16.018061 3.06678636,16.018061 C4.09298025,16.018061 4.9186535,16.8555296 4.9186535,17.8699282 Z M2.45342908,17.8817235 C2.45342908,18.2237882 2.72472172,18.4950808 3.06678636,18.4950808 C3.40885099,18.4950808 3.68014363,18.2237882 3.68014363,17.8817235 C3.68014363,17.5396589 3.40885099,17.2683662 3.06678636,17.2683662 C2.73651706,17.2683662 2.45342908,17.5396589 2.45342908,17.8817235 Z M19.6982047,4.04579892 L19.6982047,13.387702 C19.6864093,14.8503232 18.5068761,16.0298564 17.0442549,16.0298564 L7.5961939,16.0298564 L7.58439856,16.0298564 C6.12177738,16.0298564 4.93044883,14.8503232 4.93044883,13.387702 L4.93044883,4.04579892 C4.93044883,2.58317774 6.12177738,1.40355768 7.5961939,1.40355768 L17.0324596,1.40355768 C18.5068761,1.39184919 19.6982047,2.58317774 19.6982047,4.04579892 L19.6982047,4.04579892 Z M19.0258707,18.4950808 L6.81770197,18.4950808 C6.45204668,18.4950808 6.15716338,18.2237882 6.15716338,17.8817235 C6.15716338,17.5396589 6.45204668,17.2683662 6.82949731,17.2683662 L19.0376661,17.2683662 C19.2145961,17.2683662 19.3797307,17.3391382 19.5094794,17.4452962 C19.639228,17.5632496 19.71,17.7165889 19.71,17.8817235 C19.6982047,18.2119928 19.4033214,18.4950808 19.0258707,18.4950808 L19.0258707,18.4950808 Z M11.0758169,2.63035907 L11.0758169,8.48084381 L13.5410413,8.48084381 L13.5410413,2.63035907 L11.0758169,2.63035907 Z" id="形状"></path>
                            </g>
                        </g>
                    </g>
                </g>
            </g>
        </g>
    </g>
</svg>