<?xml version="1.0" encoding="UTF-8"?>
<svg width="18px" height="21px" viewBox="0 0 18 21" version="1.1" xmlns="http://www.w3.org/2000/svg" xmlns:xlink="http://www.w3.org/1999/xlink">
    <!-- Generator: Sketch 55.1 (78136) - https://sketchapp.com -->
    <title>形状结合</title>
    <desc>Created with Sketch.</desc>
    <defs>
        <linearGradient x1="14.5545963%" y1="0%" x2="85.4454037%" y2="100%" id="linearGradient-1">
            <stop stop-color="#14E1F9" offset="0%"></stop>
            <stop stop-color="#0026BD" offset="100%"></stop>
        </linearGradient>
    </defs>
    <g id="页面-1" stroke="none" stroke-width="1" fill="none" fill-rule="evenodd">
        <g id="下拉菜单" transform="translate(-307.000000, -325.000000)" fill="url(#linearGradient-1)">
            <g transform="translate(0.000000, -12.000000)" id="content">
                <g transform="translate(272.000000, 124.000000)">
                    <g id="大数据展示" transform="translate(0.000000, 5.000000)">
                        <g id="list" transform="translate(28.000000, 49.000000)">
                            <path d="M11.7301212,174.488372 C11.8034849,174.55424 11.8780393,174.619034 11.9537689,174.682718 L16,178.085383 L20.0462311,174.682718 C20.1219607,174.619034 20.1965151,174.55424 20.2698788,174.488372 C20.0169228,172.354719 18.2017015,170.7 16,170.7 C13.7982985,170.7 11.9830772,172.354719 11.7301212,174.488372 Z M10.5768058,173.240311 C11.1989011,171.321716 12.8108119,169.848945 14.8101661,169.42437 C13.9156299,168.984517 13.3,168.064152 13.3,167 C13.3,165.508831 14.5088312,164.3 16,164.3 C17.4911688,164.3 18.7,165.508831 18.7,167 C18.7,168.064152 18.0843701,168.984517 17.1898339,169.42437 C19.1891881,169.848945 20.8010989,171.321716 21.4231942,173.240311 C22.6294731,171.662413 23.3,169.717535 23.3,167.695112 L23.3,164.484868 C23.3,163.949075 22.9712801,163.468163 22.4720596,163.273604 L16,160.751281 L9.52794043,163.273604 C9.02871987,163.468163 8.7,163.949075 8.7,164.484868 L8.7,167.695112 C8.7,169.717535 9.37052694,171.662413 10.5768058,173.240311 Z M16,179.914617 L11.0527053,175.754205 C8.67354686,173.75346 7.3,170.80371 7.3,167.695112 L7.3,164.484868 C7.3,163.372067 7.98272588,162.373249 9.01956859,161.969166 L16,159.248719 L22.9804314,161.969166 C24.0172741,162.373249 24.7,163.372067 24.7,164.484868 L24.7,167.695112 C24.7,170.80371 23.3264531,173.75346 20.9472947,175.754205 L16,179.914617 Z M16,168.3 C16.7179702,168.3 17.3,167.71797 17.3,167 C17.3,166.28203 16.7179702,165.7 16,165.7 C15.2820298,165.7 14.7,166.28203 14.7,167 C14.7,167.71797 15.2820298,168.3 16,168.3 Z" id="形状结合"></path>
                        </g>
                    </g>
                </g>
            </g>
        </g>
    </g>
</svg>