<?xml version="1.0" encoding="UTF-8"?>
<svg width="20px" height="20px" viewBox="0 0 20 20" version="1.1" xmlns="http://www.w3.org/2000/svg" xmlns:xlink="http://www.w3.org/1999/xlink">
    <!-- Generator: Sketch 55.1 (78136) - https://sketchapp.com -->
    <title>各主场承运商汇总统计数据</title>
    <desc>Created with Sketch.</desc>
    <defs>
        <linearGradient x1="0%" y1="2.2660667%" x2="100%" y2="97.7339333%" id="linearGradient-1">
            <stop stop-color="#14E1F9" offset="0%"></stop>
            <stop stop-color="#0026BD" offset="100%"></stop>
        </linearGradient>
    </defs>
    <g id="页面-1" stroke="none" stroke-width="1" fill="none" fill-rule="evenodd">
        <g id="下拉菜单" transform="translate(-1384.000000, -180.000000)">
            <g transform="translate(0.000000, -12.000000)" id="content">
                <g transform="translate(272.000000, 124.000000)">
                    <g id="展后处置" transform="translate(1082.000000, 5.000000)">
                        <g id="list" transform="translate(30.000000, 49.000000)">
                            <g id="各主场承运商汇总统计数据" transform="translate(0.000000, 14.000000)">
                                <rect id="矩形" fill-opacity="0" fill="#D8D8D8" opacity="0.5" x="0" y="0" width="20" height="20"></rect>
                                <path d="M10.5039949,6.70395462 L10.5039949,9.96003629 C10.5039949,10.3219335 10.2106192,10.6153091 9.84872203,10.6153091 C9.48682483,10.6153091 9.19344919,10.3219335 9.19344919,9.96003629 L9.19344919,6.74563168 L2.42075687,10.3693644 L5.1165739,16.8832913 C6.00774588,16.1788052 6.66745507,15.866834 7.65211571,15.866834 C8.01401291,15.866834 8.30738856,16.1602097 8.30738856,16.5221069 C8.30738856,16.8840041 8.01401291,17.1773797 7.65211571,17.1773797 C7.00928449,17.1773797 6.58236429,17.3871349 5.86717384,17.9608809 C5.93287906,17.9081717 5.59506646,18.1805866 5.50967033,18.2476035 C4.82938961,18.7814717 4.3078332,19.0335642 3.61209954,19.0335642 C2.41233463,19.0335642 1.26410731,18.4175778 0.173802163,17.2365354 C-0.0716791466,16.9706247 -0.05511784,16.5560596 0.210792877,16.3105783 C0.476703594,16.065097 0.891268742,16.0816583 1.13675005,16.347569 C1.99894023,17.2815122 2.82192852,17.7230186 3.61209954,17.7230186 C3.74913294,17.7230186 3.87779344,17.6998931 4.01435155,17.6471398 L0.982873224,10.3221514 C0.854065573,10.0109123 0.982207685,9.65271541 1.27920741,9.49380555 L3.215695,8.45768681 L3.215695,5.26594356 C3.215695,4.38705036 3.92817871,3.67456665 4.80707191,3.67456665 L4.97249385,3.67456665 L4.97249385,2.59137691 C4.97249385,1.71248371 5.68497756,1 6.56387076,1 L13.3727344,1 C14.2516276,1 14.9641113,1.71248371 14.9641113,2.59137691 L14.9641113,3.67456665 L15.1042166,3.67456665 C15.9831098,3.67456665 16.6955935,4.38705036 16.6955935,5.26594356 L16.6955935,8.56225505 L18.4207938,9.49518106 C18.7391274,9.66732437 18.857638,10.0649344 18.6854947,10.383268 C18.5133514,10.7016016 18.1157414,10.8201122 17.7974078,10.6479689 L10.5039949,6.70395462 Z M9.40527745,5.14594737 C9.52196616,5.03863369 9.67769217,4.97311013 9.84872203,4.97311013 C9.85609581,4.97311013 9.86344115,4.97323193 9.87075613,4.97347362 C9.98522629,4.969661 10.100454,4.99584179 10.2042836,5.05198905 L15.3850478,7.85355927 L15.3850478,5.26594356 C15.3850478,5.11084476 15.2593154,4.98511234 15.1042166,4.98511234 L13.6535656,4.98511234 L13.6535656,2.59137691 C13.6535656,2.43627811 13.5278332,2.31054569 13.3727344,2.31054569 L6.56387076,2.31054569 C6.40877196,2.31054569 6.28303954,2.43627811 6.28303954,2.59137691 L6.28303954,4.98511234 L4.80707191,4.98511234 C4.65197311,4.98511234 4.52624069,5.11084476 4.52624069,5.26594356 L4.52624069,7.75647863 L9.40527745,5.14594737 Z M11.595714,13.5570652 C11.2091147,13.5570652 10.895714,13.2436645 10.895714,12.8570652 C10.895714,12.4704658 11.2091147,12.1570652 11.595714,12.1570652 L18.0877441,12.1570652 C18.4743435,12.1570652 18.7877441,12.4704658 18.7877441,12.8570652 C18.7877441,13.2436645 18.4743435,13.5570652 18.0877441,13.5570652 L11.595714,13.5570652 Z M11.595714,16.457065 C11.2091147,16.457065 10.895714,16.1436643 10.895714,15.757065 C10.895714,15.3704657 11.2091147,15.057065 11.595714,15.057065 L18.0877441,15.057065 C18.4743435,15.057065 18.7877441,15.3704657 18.7877441,15.757065 C18.7877441,16.1436643 18.4743435,16.457065 18.0877441,16.457065 L11.595714,16.457065 Z M11.595714,19.357065 C11.2091147,19.357065 10.895714,19.0436643 10.895714,18.657065 C10.895714,18.2704657 11.2091147,17.957065 11.595714,17.957065 L18.0877441,17.957065 C18.4743435,17.957065 18.7877441,18.2704657 18.7877441,18.657065 C18.7877441,19.0436643 18.4743435,19.357065 18.0877441,19.357065 L11.595714,19.357065 Z" id="形状结合" fill="url(#linearGradient-1)"></path>
                            </g>
                        </g>
                    </g>
                </g>
            </g>
        </g>
    </g>
</svg>