<?xml version="1.0" encoding="UTF-8"?>
<svg width="20px" height="21px" viewBox="0 0 20 21" version="1.1" xmlns="http://www.w3.org/2000/svg" xmlns:xlink="http://www.w3.org/1999/xlink">
    <!-- Generator: Sketch 55.1 (78136) - https://sketchapp.com -->
    <title>特色展品</title>
    <desc>Created with Sketch.</desc>
    <defs>
        <linearGradient x1="0%" y1="0%" x2="100%" y2="100%" id="linearGradient-1">
            <stop stop-color="#14E1F9" offset="0%"></stop>
            <stop stop-color="#0026BD" offset="100%"></stop>
        </linearGradient>
    </defs>
    <g id="页面-1" stroke="none" stroke-width="1" fill="none" fill-rule="evenodd">
        <g id="下拉菜单" transform="translate(-306.000000, -372.000000)" fill="url(#linearGradient-1)">
            <g transform="translate(0.000000, -12.000000)" id="content">
                <g transform="translate(272.000000, 124.000000)">
                    <g id="大数据展示" transform="translate(0.000000, 5.000000)">
                        <g id="list" transform="translate(28.000000, 49.000000)">
                            <path d="M16,226.3 C10.4771525,226.3 6,221.822847 6,216.3 C6,210.777153 10.4771525,206.3 16,206.3 C21.5228475,206.3 26,210.777153 26,216.3 C26,221.822847 21.5228475,226.3 16,226.3 Z M16,224.991589 C20.8002319,224.991589 24.6915888,221.100232 24.6915888,216.3 C24.6915888,211.499768 20.8002319,207.608411 16,207.608411 C11.1997681,207.608411 7.30841121,211.499768 7.30841121,216.3 C7.30841121,221.100232 11.1997681,224.991589 16,224.991589 Z M12.3844692,221.276351 L13.0749741,217.250399 L10.1499482,214.399203 L14.1922346,213.811824 L16,210.148892 L17.8077654,213.811824 L21.8500518,214.399203 L18.9250259,217.250399 L19.6155308,221.276351 L16,219.375554 L12.3844692,221.276351 Z M16,217.897343 L17.8777893,218.884555 L17.5191634,216.793606 L19.0383269,215.312788 L16.9388946,215.007722 L16,213.105314 L15.0611054,215.007722 L12.9616731,215.312788 L14.4808366,216.793606 L14.1222107,218.884555 L16,217.897343 Z" id="特色展品"></path>
                        </g>
                    </g>
                </g>
            </g>
        </g>
    </g>
</svg>