<?xml version="1.0" encoding="UTF-8"?>
<svg width="20px" height="20px" viewBox="0 0 20 20" version="1.1" xmlns="http://www.w3.org/2000/svg" xmlns:xlink="http://www.w3.org/1999/xlink">
    <!-- Generator: Sketch 55.1 (78136) - https://sketchapp.com -->
    <title>list</title>
    <desc>Created with Sketch.</desc>
    <defs>
        <linearGradient x1="0%" y1="6.36950553%" x2="100%" y2="93.6304945%" id="linearGradient-1">
            <stop stop-color="#14E1F9" offset="0%"></stop>
            <stop stop-color="#0026BD" offset="100%"></stop>
        </linearGradient>
    </defs>
    <g id="页面-1" stroke="none" stroke-width="1" fill="none" fill-rule="evenodd">
        <g id="下拉菜单" transform="translate(-664.000000, -228.000000)">
            <g transform="translate(0.000000, -12.000000)" id="content">
                <g transform="translate(272.000000, 124.000000)">
                    <g id="展前通关" transform="translate(360.000000, 5.000000)">
                        <g id="list" transform="translate(11.000000, 49.000000)">
                            <g id="优享订舱" transform="translate(21.000000, 62.000000)">
                                <rect id="矩形" fill-opacity="0" fill="#D8D8D8" opacity="0.5" x="0" y="0" width="20" height="20"></rect>
                                <path d="M17.0852833,16.8877862 C18.1031276,17.0242025 19.1032004,17.5272231 20.0794553,18.376907 C20.3710719,18.6307156 20.4017213,19.0728701 20.1479127,19.3644866 C19.8941041,19.6561032 19.4519496,19.6867526 19.160333,19.432944 C18.2443539,18.6357212 17.3696961,18.2523155 16.5263915,18.2498544 C16.3545861,18.4477627 16.0802667,18.5375761 15.8177698,18.4674734 C15.7067151,18.5366737 15.5855512,18.6247086 15.4459612,18.7347864 C15.3876817,18.7807445 15.1790036,18.9485006 15.1608622,18.9629686 C14.2793782,19.6659647 13.6023216,19.9815524 12.5451124,19.9815524 C11.544087,19.9815524 10.9454498,19.7169386 10.0130724,19.0492594 L9.92303229,18.9847167 C9.14279352,18.4256823 8.73897453,18.2498425 7.97572441,18.2498425 C7.1980039,18.2498425 6.67212201,18.4560112 5.86780016,18.9826663 C5.91597428,18.9512928 5.42655092,19.2755742 5.30701363,19.3510555 C4.63588632,19.7748361 4.09491325,19.9815524 3.42730987,19.9815524 C2.13674143,19.9815524 1.02722266,19.3751236 0.143278947,18.2151971 C-0.0910488486,17.907708 -0.0317399251,17.4684787 0.275749135,17.2341509 C0.583238196,16.9998231 1.02246754,17.059132 1.25679534,17.3666211 C1.88748183,18.194219 2.59614487,18.5815524 3.42730987,18.5815524 C3.50930316,18.5815524 3.58901848,18.575153 3.66894255,18.5616336 L0.591726708,10.5230268 C0.465792652,10.1940494 0.603940295,9.82273713 0.914277958,9.65607571 L2.72730987,8.68241862 L2.72730987,5.42727273 C2.72730987,4.48838865 3.48842579,3.72727273 4.42730987,3.72727273 L4.90912805,3.72727273 L4.90912805,2.7 C4.90912805,1.76111593 5.67024398,1 6.60912805,1 L13.3364008,1 C14.2752849,1 15.0364008,1.76111593 15.0364008,2.7 L15.0364008,3.72727273 L15.518219,3.72727273 C16.457103,3.72727273 17.218219,4.48838865 17.218219,5.42727273 L17.218219,8.61467133 L19.1574021,9.65607571 C19.466393,9.82201391 19.6048846,10.1910082 19.4813784,10.5192719 L17.0852833,16.8877862 Z M15.5326213,17.0388876 L17.9553311,10.5996348 L10.6727644,6.68865975 L10.6727644,17.7909091 C10.6727644,17.7938989 10.6727457,17.7968843 10.6727083,17.7998652 C10.6944505,17.8152592 10.7163538,17.830863 10.738427,17.8466782 L10.8281757,17.9110123 C11.5443297,18.423853 11.9010939,18.5815524 12.5451124,18.5815524 C13.2249096,18.5815524 13.6312593,18.3921458 14.2879491,17.8684263 C14.3015459,17.8575827 14.5146252,17.6862885 14.5790645,17.6354729 C14.9219204,17.3651036 15.2236075,17.1680322 15.5326213,17.0388876 Z M9.27276441,17.0349836 L9.27276441,6.75640705 L2.11948087,10.5979529 L4.92537967,17.9277985 C5.04260835,17.8503529 5.12930392,17.7927214 5.08150792,17.8241217 C6.10340924,17.1525342 6.86677049,16.8498425 7.97572441,16.8498425 C8.47772797,16.8498425 8.88545838,16.9070853 9.27276441,17.0349836 Z M15.818219,7.8628258 L15.818219,5.42727273 C15.818219,5.2615873 15.6839044,5.12727273 15.518219,5.12727273 L13.6364008,5.12727273 L13.6364008,2.7 C13.6364008,2.53431458 13.5020862,2.4 13.3364008,2.4 L6.60912805,2.4 C6.44344263,2.4 6.30912805,2.53431458 6.30912805,2.7 L6.30912805,5.12727273 L4.42730987,5.12727273 C4.26162444,5.12727273 4.12730987,5.2615873 4.12730987,5.42727273 L4.12730987,7.9305731 L9.4191469,5.08868455 C9.56427825,4.90297387 9.79923925,4.7968552 10.0401858,4.82047118 C10.2721341,4.80106381 10.5043131,4.89882311 10.6512858,5.08801467 L15.818219,7.8628258 Z" id="形状结合" fill="url(#linearGradient-1)"></path>
                            </g>
                        </g>
                    </g>
                </g>
            </g>
        </g>
    </g>
</svg>