<?xml version="1.0" encoding="UTF-8"?>
<svg width="20px" height="20px" viewBox="0 0 20 20" version="1.1" xmlns="http://www.w3.org/2000/svg" xmlns:xlink="http://www.w3.org/1999/xlink">
    <!-- Generator: Sketch 55.1 (78136) - https://sketchapp.com -->
    <title>热用户数据分析 copy</title>
    <desc>Created with Sketch.</desc>
    <defs>
        <linearGradient x1="0%" y1="0%" x2="100%" y2="100%" id="linearGradient-1">
            <stop stop-color="#14E1F9" offset="0%"></stop>
            <stop stop-color="#0026BD" offset="100%"></stop>
        </linearGradient>
    </defs>
    <g id="页面-1" stroke="none" stroke-width="1" fill="none" fill-rule="evenodd">
        <g id="下拉菜单" transform="translate(-304.000000, -229.000000)">
            <g transform="translate(0.000000, -12.000000)" id="content">
                <g transform="translate(272.000000, 124.000000)">
                    <g id="大数据展示" transform="translate(0.000000, 5.000000)">
                        <g id="list" transform="translate(28.000000, 49.000000)">
                            <g id="热用户数据分析-copy" transform="translate(0.000000, 58.000000)">
                                <rect id="矩形" fill="#000000" fill-rule="nonzero" opacity="0" x="4" y="5" width="20" height="20"></rect>
                                <path d="M11.7577857,5 L16.7715039,5 C17.1805666,5 17.5649635,5.19561785 17.8057354,5.52631579 C18.0479758,5.85903055 18.1260924,6.28371834 18.0181,6.68085453 L16.6423238,11.7401981 C16.5293836,12.1555296 16.3416355,12.5467783 16.0882966,12.8947368 C15.8475247,13.2254348 15.4631278,13.4210526 15.0540651,13.4210526 L13.4752245,13.4210526 C13.0661618,13.4210526 12.6817649,13.2254348 12.440993,12.8947368 C12.1876541,12.5467783 11.999906,12.1555296 11.8869658,11.7401981 L10.5111896,6.68085453 C10.4031972,6.28371834 10.4813138,5.85903055 10.7235542,5.52631579 C10.9643261,5.19561785 11.348723,5 11.7577857,5 Z M13.2379089,11.3728391 C13.3008551,11.6043202 13.4022449,11.8234251 13.537711,12.0210526 L14.9915786,12.0210526 C15.1270447,11.8234251 15.2284345,11.6043202 15.2913807,11.3728391 L16.6436339,6.4 L11.8856557,6.4 L13.2379089,11.3728391 Z M11.7577857,25 C11.348723,25 10.9643261,24.8043821 10.7235542,24.4736842 C10.4813138,24.1409695 10.4031972,23.7162817 10.5111896,23.3191455 L11.8869658,18.2598019 C11.999906,17.8444704 12.1876541,17.4532217 12.440993,17.1052632 C12.6817649,16.7745652 13.0661618,16.5789474 13.4752245,16.5789474 L15.0540651,16.5789474 C15.4631278,16.5789474 15.8475247,16.7745652 16.0882966,17.1052632 C16.3416355,17.4532217 16.5293836,17.8444704 16.6423238,18.2598019 L18.0181,23.3191455 C18.1260924,23.7162817 18.0479758,24.1409695 17.8057354,24.4736842 C17.5649635,24.8043821 17.1805666,25 16.7715039,25 L11.7577857,25 Z M16.6436339,23.6 L15.2913807,18.6271609 C15.2284345,18.3956798 15.1270447,18.1765749 14.9915786,17.9789474 L13.537711,17.9789474 C13.4022449,18.1765749 13.3008551,18.3956798 13.2379089,18.6271609 L11.8856557,23.6 L16.6436339,23.6 Z M24.2646448,12.4931409 L24.2646448,17.5068591 C24.2646448,17.9159218 24.0690269,18.3003187 23.738329,18.5410906 C23.4056143,18.783331 22.9809265,18.8614476 22.5837903,18.7534552 L17.5244467,17.377679 C17.1091152,17.2647388 16.7178665,17.0769907 16.369908,16.8236518 C16.03921,16.5828799 15.8435922,16.198483 15.8435922,15.7894203 L15.8435922,14.2105797 C15.8435922,13.801517 16.03921,13.4171201 16.369908,13.1763482 C16.7178665,12.9230093 17.1091152,12.7352612 17.5244467,12.622321 L22.5837903,11.2465448 C22.9809265,11.1385524 23.4056143,11.216669 23.738329,11.4589094 C24.0690269,11.6996813 24.2646448,12.0840782 24.2646448,12.4931409 Z M17.8918057,13.9732641 C17.6603246,14.0362103 17.4412197,14.1376001 17.2435922,14.2730662 L17.2435922,15.7269338 C17.4412197,15.8623999 17.6603246,15.9637897 17.8918057,16.0267359 L22.8646448,17.3789891 L22.8646448,12.6210109 L17.8918057,13.9732641 Z M4.2646448,12.4931409 C4.2646448,12.0840782 4.46026265,11.6996813 4.79096059,11.4589094 C5.12367535,11.216669 5.54836314,11.1385524 5.94549932,11.2465448 L11.0048429,12.622321 C11.4201744,12.7352612 11.8114231,12.9230093 12.1593816,13.1763482 C12.4900796,13.4171201 12.6856974,13.801517 12.6856974,14.2105797 L12.6856974,15.7894203 C12.6856974,16.198483 12.4900796,16.5828799 12.1593816,16.8236518 C11.8114231,17.0769907 11.4201744,17.2647388 11.0048429,17.377679 L5.94549932,18.7534552 C5.54836314,18.8614476 5.12367535,18.783331 4.79096059,18.5410906 C4.46026265,18.3003187 4.2646448,17.9159218 4.2646448,17.5068591 L4.2646448,12.4931409 Z M5.6646448,17.3789891 L10.6374839,16.0267359 C10.868965,15.9637897 11.0880699,15.8623999 11.2856974,15.7269338 L11.2856974,14.2730662 C11.0880699,14.1376001 10.868965,14.0362103 10.6374839,13.9732641 L5.6646448,12.6210109 L5.6646448,17.3789891 Z" id="形状结合" fill="url(#linearGradient-1)" transform="translate(14.264645, 15.000000) rotate(-45.000000) translate(-14.264645, -15.000000) "></path>
                            </g>
                        </g>
                    </g>
                </g>
            </g>
        </g>
    </g>
</svg>