<?xml version="1.0" encoding="UTF-8"?>
<svg width="18px" height="18px" viewBox="0 0 18 18" version="1.1" xmlns="http://www.w3.org/2000/svg" xmlns:xlink="http://www.w3.org/1999/xlink">
    <!-- Generator: Sketch 55.1 (78136) - https://sketchapp.com -->
    <title>展会概况</title>
    <desc>Created with Sketch.</desc>
    <defs>
        <linearGradient x1="0%" y1="0%" x2="100%" y2="100%" id="linearGradient-1">
            <stop stop-color="#14E1F9" offset="0%"></stop>
            <stop stop-color="#0026BD" offset="100%"></stop>
        </linearGradient>
    </defs>
    <g id="页面-1" stroke="none" stroke-width="1" fill="none" fill-rule="evenodd">
        <g id="下拉菜单" transform="translate(-305.000000, -182.000000)">
            <g transform="translate(0.000000, -12.000000)" id="content">
                <g transform="translate(272.000000, 124.000000)">
                    <g id="大数据展示" transform="translate(0.000000, 5.000000)">
                        <g id="list" transform="translate(28.000000, 49.000000)">
                            <g id="展会概况" transform="translate(4.000000, 15.000000)">
                                <rect id="矩形" fill="#000000" fill-rule="nonzero" opacity="0" x="0" y="0" width="20" height="20"></rect>
                                <path d="M5.5,14.68 C5.15206061,14.68 4.87,14.3979394 4.87,14.05 C4.87,13.7020606 5.15206061,13.42 5.5,13.42 L14.4927211,13.42 C14.8406605,13.42 15.1227211,13.7020606 15.1227211,14.05 C15.1227211,14.3979394 14.8406605,14.68 14.4927211,14.68 L5.5,14.68 Z M8.47688439,11.5844877 C8.34154147,11.6312338 8.19431185,11.6304804 8.05945441,11.5823517 L5.28824333,10.5933457 C4.96054755,10.4763957 4.78970433,10.1159391 4.90665431,9.78824333 C5.02360429,9.46054755 5.3840609,9.28970433 5.71175667,9.40665431 L8.27462778,10.3213067 L10.9289866,9.40451827 C11.0834525,9.35116733 11.2526054,9.35992586 11.4007351,9.42894485 L14.7587963,10.9935868 C15.0741813,11.140536 15.2107255,11.5153321 15.0637762,11.8307171 C14.9168269,12.1461022 14.5420309,12.2826463 14.2266459,12.1356971 L11.0995199,10.6786562 L8.47688439,11.5844877 Z M4.6,2.26 C3.30765369,2.26 2.26,3.30765369 2.26,4.6 L2.26,15.4 C2.26,16.6923463 3.30765369,17.74 4.6,17.74 L15.4,17.74 C16.6923463,17.74 17.74,16.6923463 17.74,15.4 L17.74,4.6 C17.74,3.30765369 16.6923463,2.26 15.4,2.26 L4.6,2.26 Z M4.6,1 L15.4,1 C17.3882251,1 19,2.6117749 19,4.6 L19,15.4 C19,17.3882251 17.3882251,19 15.4,19 L4.6,19 C2.6117749,19 1,17.3882251 1,15.4 L1,4.6 C1,2.6117749 2.6117749,1 4.6,1 Z M8.47688439,5.48013301 L11.0995199,6.38596453 L14.2266459,4.92892366 C14.5420309,4.78197438 14.9168269,4.91851855 15.0637762,5.2339036 C15.2107255,5.54928865 15.0741813,5.92408468 14.7587963,6.07103396 L11.4007351,7.63567587 C11.2526054,7.70469486 11.0834525,7.71345339 10.9289866,7.66010245 L8.27462778,6.74331402 L5.71175667,7.65796641 C5.3840609,7.77491639 5.02360429,7.60407317 4.90665431,7.27637739 C4.78970433,6.94868162 4.96054755,6.58822501 5.28824333,6.47127503 L8.05945441,5.48226904 C8.19431185,5.43414033 8.34154147,5.43338694 8.47688439,5.48013301 Z" id="合并形状" fill="url(#linearGradient-1)"></path>
                            </g>
                        </g>
                    </g>
                </g>
            </g>
        </g>
    </g>
</svg>