<?xml version="1.0" encoding="UTF-8"?>
<svg width="20px" height="20px" viewBox="0 0 20 20" version="1.1" xmlns="http://www.w3.org/2000/svg" xmlns:xlink="http://www.w3.org/1999/xlink">
    <!-- Generator: Sketch 55.1 (78136) - https://sketchapp.com -->
    <title>进境物资证明函</title>
    <desc>Created with Sketch.</desc>
    <defs>
        <linearGradient x1="0%" y1="3.50765306%" x2="100%" y2="96.4923469%" id="linearGradient-1">
            <stop stop-color="#14E1F9" offset="0%"></stop>
            <stop stop-color="#0026BD" offset="100%"></stop>
        </linearGradient>
    </defs>
    <g id="页面-1" stroke="none" stroke-width="1" fill="none" fill-rule="evenodd">
        <g id="下拉菜单" transform="translate(-664.000000, -180.000000)" fill="url(#linearGradient-1)">
            <g transform="translate(0.000000, -12.000000)" id="content">
                <g transform="translate(272.000000, 124.000000)">
                    <g id="展前通关" transform="translate(360.000000, 5.000000)">
                        <g id="list" transform="translate(11.000000, 49.000000)">
                            <g id="进境物资证明函" transform="translate(21.000000, 14.000000)">
                                <path d="M12.7994792,4.79166667 C12.7994792,5.17578125 12.4891493,5.48611111 12.1072049,5.48611111 L3.78472222,5.48611111 C3.40060764,5.48611111 3.09027778,5.17578125 3.09027778,4.79166667 C3.09027778,4.40755208 3.40277778,4.09722222 3.78472222,4.09722222 L12.1050347,4.09722222 C12.4891493,4.09722222 12.7994792,4.40755208 12.7994792,4.79166667 Z M12.7994792,8.95833333 C12.7994792,9.34244792 12.4891493,9.65277778 12.1072049,9.65277778 L3.78472222,9.65277778 C3.40060764,9.65277778 3.09027778,9.34244792 3.09027778,8.95833333 C3.09027778,8.57421875 3.40277778,8.26388889 3.78472222,8.26388889 L12.1050347,8.26388889 C12.4891493,8.26388889 12.7994792,8.57421875 12.7994792,8.95833333 Z M3.78472222,12.4305556 L9.31206597,12.4305556 C9.69618056,12.4305556 10.0065104,12.7408854 10.0065104,13.125 C10.0065104,13.5091146 9.69401042,13.8194444 9.31206597,13.8194444 L3.78472222,13.8194444 C3.40060764,13.8194444 3.09027778,13.5091146 3.09027778,13.125 C3.09027778,12.7408854 3.40277778,12.4305556 3.78472222,12.4305556 Z M10.7052951,17.2938368 C11.0872396,17.2938368 11.3975694,17.6041667 11.3953993,17.9882812 C11.3953993,18.3723958 11.0850694,18.6827257 10.703125,18.6827257 L1.66232639,18.6827257 C0.8984375,18.6827257 0.277777778,18.0598958 0.277777778,17.2938368 L0.277777778,2.01388889 C0.277777778,1.24782986 0.8984375,0.625 1.66232639,0.625 L14.1970486,0.625 C14.9609375,0.625 15.5815972,1.24782986 15.5815972,2.01388889 L15.5815972,8.95833333 C15.5815972,9.34244792 15.2712674,9.65277778 14.8893229,9.65277778 C14.5073785,9.65277778 14.1970486,9.34244792 14.1970486,8.95833333 L14.1970486,2.70833333 C14.1970486,2.32421875 13.8867188,2.01388889 13.5047743,2.01388889 L2.35677083,2.01388889 C1.97482639,2.01388889 1.66449653,2.32421875 1.66449653,2.70833333 L1.66449653,16.5993924 C1.66449653,16.9835069 1.97482639,17.2938368 2.35677083,17.2938368 L10.7052951,17.2938368 Z M19.7222222,14.2252604 L17.0138889,16.1914062 L18.0490451,19.375 L15.3407118,17.4088542 L12.6345486,19.375 L13.6675347,16.1914062 L10.9613715,14.2252604 L14.3077257,14.2252604 L15.3407118,11.0416667 L16.3758681,14.2252604 L19.7222222,14.2252604 Z" id="合并形状"></path>
                            </g>
                        </g>
                    </g>
                </g>
            </g>
        </g>
    </g>
</svg>