<?xml version="1.0" encoding="UTF-8"?>
<svg width="20px" height="20px" viewBox="0 0 20 20" version="1.1" xmlns="http://www.w3.org/2000/svg" xmlns:xlink="http://www.w3.org/1999/xlink">
    <!-- Generator: Sketch 55.1 (78136) - https://sketchapp.com -->
    <title>展品概况</title>
    <desc>Created with Sketch.</desc>
    <defs>
        <linearGradient x1="0%" y1="0.0343593993%" x2="100%" y2="99.9656406%" id="linearGradient-1">
            <stop stop-color="#14E1F9" offset="0%"></stop>
            <stop stop-color="#0026BD" offset="100%"></stop>
        </linearGradient>
    </defs>
    <g id="页面-1" stroke="none" stroke-width="1" fill="none" fill-rule="evenodd">
        <g id="下拉菜单" transform="translate(-306.000000, -278.000000)">
            <g transform="translate(0.000000, -12.000000)" id="content">
                <g transform="translate(272.000000, 124.000000)">
                    <g id="大数据展示" transform="translate(0.000000, 5.000000)">
                        <g id="list" transform="translate(28.000000, 49.000000)">
                            <g id="展品概况" transform="translate(6.000000, 112.000000)">
                                <rect id="矩形" fill="#000000" fill-rule="nonzero" opacity="0" x="0" y="0" width="19.9804878" height="19.9804878"></rect>
                                <path d="M11.5474737,-4.95349619e-13 L11.5510416,-4.95349619e-13 L11.5510416,1.42717159 C15.1420197,2.0363415 17.9546792,4.85043231 18.562022,8.44171992 L11.5474737,8.44171992 L11.5474737,-4.95349619e-13 C11.6264251,0.000609883311 11.7051898,0.0077703095 11.782957,0.0214075707 C15.974868,0.730197726 19.2589959,4.01432554 19.967786,8.2062366 C20.0369791,8.61983885 19.9207667,9.04294175 19.650014,9.3631721 C19.3792613,9.68340245 18.9813718,9.86834911 18.562022,9.86889151 L11.5474737,9.86889151 C10.7592686,9.86889151 10.1203021,9.22992503 10.1203021,8.44171992 L10.1203021,1.42717159 C10.1203021,0.638966486 10.7592686,-4.95349619e-13 11.5474737,-4.95349619e-13 Z M7.5228498,2.27990661 C8.3026821,2.29160541 8.92870155,2.92715814 8.92861381,3.70707819 L8.92861381,10.346994 C8.92861383,10.7410965 9.24809707,11.0605798 9.64219961,11.0605798 L16.2642757,11.0605798 C16.6888332,11.0543915 17.0941002,11.2375656 17.3699732,11.560337 C17.6458462,11.8831084 17.7636749,12.3119563 17.6914473,12.7303705 C16.8692039,16.9251476 13.2031605,19.9582909 8.92861381,19.9804893 C8.43277058,19.9825667 7.93757327,19.9443828 7.4479233,19.8662284 C3.18520028,19.1530372 0.0470606161,15.4864529 0.000524394761,11.1647306 C-0.0460118266,6.8430083 3.01244593,3.10969921 7.25882306,2.30488211 C7.34604253,2.28965858 7.4343228,2.28130774 7.5228498,2.27990661 Z M7.50144222,3.70707819 C3.94662959,4.39770331 1.39446972,7.53185395 1.43828643,11.1528671 C1.48210315,14.7738802 4.10935531,17.8453564 7.67983867,18.4497606 C8.09264455,18.5177173 8.51025277,18.5523191 8.92861381,18.5532306 C12.5126487,18.5438773 15.5911859,16.0045696 16.2821154,12.4877514 L9.64219961,12.4877514 C8.45989196,12.4877514 7.50144224,11.5293016 7.50144222,10.346994 L7.50144222,3.70707819 Z" id="合并形状" fill="url(#linearGradient-1)"></path>
                            </g>
                        </g>
                    </g>
                </g>
            </g>
        </g>
    </g>
</svg>