<?xml version="1.0" encoding="UTF-8"?>
<svg width="20px" height="20px" viewBox="0 0 20 20" version="1.1" xmlns="http://www.w3.org/2000/svg" xmlns:xlink="http://www.w3.org/1999/xlink">
    <!-- Generator: Sketch 55.1 (78136) - https://sketchapp.com -->
    <title>转移路线</title>
    <desc>Created with Sketch.</desc>
    <defs>
        <linearGradient x1="4.21742406%" y1="0%" x2="95.7825759%" y2="100%" id="linearGradient-1">
            <stop stop-color="#14E1F9" offset="0%"></stop>
            <stop stop-color="#0026BD" offset="100%"></stop>
        </linearGradient>
    </defs>
    <g id="页面-1" stroke="none" stroke-width="1" fill="none" fill-rule="evenodd">
        <g id="下拉菜单" transform="translate(-1025.000000, -180.000000)">
            <g transform="translate(0.000000, -12.000000)" id="content">
                <g transform="translate(272.000000, 124.000000)">
                    <g id="展中监管" transform="translate(720.000000, 5.000000)">
                        <g id="list" transform="translate(33.000000, 49.000000)">
                            <g id="转移路线" transform="translate(0.000000, 14.000000)">
                                <rect id="矩形" fill="#000000" fill-rule="nonzero" opacity="0" x="0" y="0" width="20" height="20"></rect>
                                <path d="M5.02235279,5.47451829 C5.14241922,5.47451829 5.25737643,5.44641717 5.36466982,5.39277047 C5.48729084,5.33145996 5.61502107,5.27781326 5.74530592,5.23183037 C6.05647879,5.12349851 6.2633479,4.82811823 6.25878145,4.49865883 C6.25346542,4.07927703 5.91181543,3.74218236 5.49240006,3.74249562 C5.4055435,3.74249562 5.32124154,3.75526887 5.23693959,3.78592412 C5.04534424,3.85234385 4.85885811,3.93409119 4.68003576,4.02350236 C4.49610422,4.11291354 4.36071018,4.27129902 4.29429045,4.46544896 C4.23042533,4.65959893 4.24575297,4.86652189 4.33771873,5.05045344 C4.46673203,5.3104885 4.73207265,5.47484127 5.02235279,5.47451829 L5.02235279,5.47451829 Z M4.71580023,8.0878784 C4.57471198,7.87451344 4.33549382,7.74673828 4.07970367,7.74810495 C3.92898199,7.74810495 3.78081492,7.79154426 3.65308469,7.87840082 C3.48437226,7.99153979 3.36751839,8.16706976 3.32823306,8.36637097 C3.28894772,8.56567218 3.33044945,8.77241647 3.44360711,8.94111637 C3.5483459,9.09694725 3.66330311,9.25277814 3.78847873,9.40605441 C3.93409119,9.58743135 4.1512326,9.69217014 4.38370162,9.69217014 C4.55996934,9.69217014 4.72857326,9.63085963 4.86652191,9.52101162 C5.0249074,9.39328139 5.12453699,9.20934984 5.14497381,9.00498148 C5.16830974,8.8028618 5.10835896,8.59995145 4.97892451,8.44296846 C4.88440414,8.32545664 4.79754758,8.20539021 4.71580023,8.0878784 L4.71580023,8.0878784 Z M5.69936764,15.9049687 C5.69676842,15.7874569 5.66866777,15.6776089 5.61757568,15.5728701 C5.48881323,15.311408 5.22182747,15.146651 4.93038703,15.1488057 C4.81287521,15.1488057 4.69791801,15.1743518 4.59062461,15.2279985 L4.58296078,15.2331077 C4.54464172,15.2535445 4.50376803,15.2739813 4.46544896,15.2969728 C4.03706065,15.0022761 3.5292884,14.8445994 3.00932432,14.8448076 C1.5889641,14.8448076 0.431728184,16.0020437 0.431728184,17.4224039 C0.431728184,18.8427641 1.5889641,20 3.00932432,20 C4.42968453,20 5.58692043,18.8427641 5.58692043,17.4224039 C5.58692043,17.0979691 5.52560992,16.7914165 5.41576191,16.5053008 C5.59458424,16.3596883 5.70187764,16.1399923 5.69936764,15.9049687 Z M3.00932432,18.4672372 C2.43198365,18.4672372 1.964491,17.9997445 1.964491,17.4224039 C1.964491,16.8450632 2.43198365,16.3775706 3.00932432,16.3775706 C3.58666498,16.3775706 4.05415762,16.8476178 4.05415762,17.4224039 C4.05415762,17.9971899 3.58666496,18.4672372 3.00932432,18.4672372 L3.00932432,18.4672372 Z M3.40017883,7.36747988 C3.42317027,7.36747988 3.44871631,7.37003449 3.47426236,7.37003449 C3.87022609,7.37003449 4.19721549,7.07370035 4.23808916,6.67773662 C4.24064377,6.62664453 4.25086219,6.57299783 4.2661898,6.51679652 C4.27640822,6.47592285 4.28918125,6.43504918 4.30706348,6.3916209 C4.34282795,6.30220973 4.36071018,6.20768936 4.36071018,6.11061437 C4.36071018,5.7938434 4.17166943,5.51539148 3.8778899,5.39787969 C3.68929001,5.32127412 3.47788974,5.32325705 3.29076002,5.40338696 C3.10363031,5.48351686 2.95630721,5.63514111 2.88159408,5.82449865 C2.84327502,5.92412824 2.81006516,6.02631242 2.78196449,6.13105121 C2.74875463,6.26133605 2.72320859,6.39417549 2.71043557,6.52956955 C2.68999873,6.73393793 2.75130924,6.93319709 2.88159408,7.08902797 C3.01187893,7.24741346 3.19581045,7.34704305 3.40017883,7.36747988 L3.40017883,7.36747988 Z M11.8482565,6.89743262 C11.9070124,6.93319709 11.9504407,6.96129773 11.9759867,6.97662537 C12.0653979,7.03282668 12.1624729,7.09158258 12.2621024,7.1554477 C12.3847235,7.23464045 12.5277813,7.27551412 12.6733938,7.27551412 C12.9365181,7.27551412 13.1792055,7.14267469 13.3197088,6.92042406 C13.3989015,6.79780305 13.4397752,6.65474518 13.4397752,6.50913271 C13.4397752,6.24600844 13.3069358,6.003321 13.0872397,5.86281773 L13.0821305,5.86026313 C12.9748371,5.79128879 12.8700984,5.72742369 12.7806872,5.67122238 C12.7315633,5.6395752 12.6812886,5.6097512 12.6299655,5.58181121 C12.5124537,5.51028229 12.3770596,5.47196322 12.239111,5.47196322 C11.9708775,5.47196322 11.7179716,5.61757568 11.580023,5.8474901 C11.4752842,6.02375781 11.4471836,6.2306808 11.495721,6.42738537 C11.5468131,6.62664453 11.6719887,6.79269385 11.8482565,6.89743262 L11.8482565,6.89743262 Z M7.39558053,5.12453697 C7.5386384,5.14497381 7.68936006,5.17307445 7.84774557,5.20883893 C7.90139227,5.22161195 7.95759357,5.22672117 8.01124025,5.22672117 C8.3688849,5.22672117 8.68310129,4.97381531 8.75973943,4.62638906 C8.77251246,4.56763316 8.77762166,4.50887725 8.77762166,4.45267596 C8.77506705,4.0924767 8.52727041,3.78847875 8.17728957,3.71184059 C7.99335803,3.67096691 7.80687189,3.63775705 7.62294035,3.60965641 C7.20909439,3.54579129 6.81313066,3.84212543 6.75182016,4.25341678 C6.68795504,4.66981734 6.97917998,5.06067186 7.39558053,5.12453697 L7.39558053,5.12453697 Z M9.65896027,5.80150721 C9.83011879,5.87303613 9.97828586,5.93690125 10.1085707,5.99565717 C10.494508,6.16776663 10.9470475,5.99678193 11.1227488,5.61246646 C11.166177,5.51283687 11.1891685,5.40554348 11.1891685,5.29569549 C11.1891685,4.99680674 11.0129008,4.72090943 10.739558,4.59828842 C10.5632903,4.51909566 10.4023502,4.44756674 10.249074,4.38625623 C10.1562139,4.34672869 10.0562143,4.32672879 9.95529441,4.32750031 C9.64363264,4.32750031 9.36518074,4.51143186 9.24766893,4.79754758 C9.08417422,5.18840209 9.27066037,5.63801252 9.65896027,5.80150721 L9.65896027,5.80150721 Z M8.17218035,10.6348193 C7.8196449,10.6348193 7.51309234,10.8723975 7.42879039,11.2147145 C7.41090816,11.2785796 7.40324434,11.3424448 7.40579895,11.4063099 C7.40579895,11.7562907 7.64593178,12.0602887 7.98569422,12.1445906 C8.16707115,12.1905735 8.35611189,12.2288926 8.54515264,12.2621024 C8.58602631,12.2672117 8.62945459,12.2723209 8.67288287,12.2723209 C9.04840977,12.2723209 9.36518074,12.0040874 9.42649125,11.6311151 C9.49576109,11.2143345 9.21466109,10.8201089 8.7980585,10.7497765 C8.64478221,10.7242304 8.50172436,10.6935752 8.3586665,10.6578107 C8.29766411,10.6426274 8.23504383,10.6349071 8.17218035,10.6348193 L8.17218035,10.6348193 Z M14.0605441,16.937029 C13.9251501,16.937029 13.7923106,16.9727935 13.6773534,17.0392132 C13.5623962,17.1056329 13.4397752,17.1669434 13.3069357,17.2231447 C13.117895,17.3023375 12.9722825,17.4505046 12.8956444,17.6420999 C12.8164516,17.8311406 12.8190063,18.0380636 12.898199,18.2271044 C12.976395,18.4150526 13.1264479,18.5639646 13.3149876,18.6407238 C13.5035272,18.7174829 13.7149216,18.715725 13.9021586,18.6358411 C14.093754,18.5540938 14.2776855,18.4646826 14.4462894,18.365053 C14.6838677,18.2271044 14.8294801,17.9716439 14.8269255,17.6983012 C14.8269255,17.5654618 14.7911611,17.4326223 14.7247413,17.3176651 C14.5864206,17.0820668 14.3337457,16.9372647 14.0605441,16.937029 Z M14.4565079,13.5419594 C14.5127092,13.654362 14.5663559,13.7820922 14.6123387,13.9174863 C14.6762864,14.1107812 14.8148054,14.270519 14.9971007,14.3611869 C15.179396,14.4518548 15.3903589,14.4659384 15.5830885,14.4003065 C15.983583,14.2645393 16.1992844,13.8308541 16.0659088,13.4295568 C15.9994891,13.2328522 15.9202963,13.0438115 15.8334398,12.8624345 C15.7038655,12.6001744 15.4362174,12.4346291 15.1436965,12.4358092 C15.0261847,12.4358092 14.9112275,12.4613616 14.8064887,12.5150083 C14.5433644,12.6427385 14.3747605,12.9160812 14.3773151,13.2098608 C14.3798697,13.324818 14.4054158,13.434666 14.4565079,13.5419594 L14.4565079,13.5419594 Z M13.4244476,12.4766892 C13.5240771,12.5201175 13.6288159,12.5431089 13.7361093,12.5431089 C14.0401073,12.5431089 14.31345,12.3642866 14.4386256,12.0883893 C14.520373,11.9019032 14.5254822,11.6924256 14.4539532,11.5033848 C14.3811565,11.3133756 14.236015,11.1599666 14.0503257,11.0767659 C13.8561757,10.9899093 13.6466982,10.920935 13.4321114,10.8698429 C13.0233746,10.7702133 12.6044195,11.0333376 12.5073445,11.4369651 C12.4945715,11.4931664 12.4868877,11.5519223 12.4868877,11.6106782 C12.484353,11.9683229 12.7270405,12.2774301 13.0770213,12.3591774 C13.2047516,12.3923873 13.3197088,12.4281518 13.4244476,12.4766892 Z M15.631626,14.9367735 C15.2177801,14.8601354 14.8141525,15.1411419 14.7375144,15.5498787 C14.7119683,15.6852727 14.6787585,15.8130029 14.6378848,15.9305147 C14.4975033,16.3290853 14.7068069,16.7659922 15.1053774,16.9063737 C15.503948,17.0467552 15.9408549,16.8374516 16.0812364,16.4388811 C16.1502108,16.2472857 16.2038574,16.0429173 16.2447311,15.8308852 C16.3220056,15.4147472 16.0476521,15.0146483 15.631626,14.9367735 Z M11.6132329,17.5577979 L11.6004598,17.5577979 C11.4522928,17.5629071 11.3041257,17.5552433 11.1559586,17.5450249 C10.7343742,17.5175947 10.3689993,17.8340254 10.3359305,18.255205 C10.3063613,18.6775058 10.6239164,19.0441792 11.0461106,19.0752331 C11.2044961,19.0854515 11.3654362,19.0905607 11.5263763,19.0905607 L11.6234513,19.0905607 C12.0347426,19.0854515 12.3719504,18.7456891 12.3770596,18.3343978 L12.3770596,18.3139609 C12.3719504,17.8975604 12.0270788,17.5577979 11.6132329,17.5577979 L11.6132329,17.5577979 Z M10.7497765,12.3515142 C10.9056073,12.3412952 11.0588836,12.3336314 11.2070507,12.3234129 L11.2658066,12.3208583 C11.470175,12.3055307 11.6592157,12.2161196 11.7946098,12.0628433 C11.9300038,11.9070124 11.9964236,11.7103078 11.9836505,11.5059395 C11.9710455,11.303259 11.878303,11.1139261 11.7258922,10.9797278 C11.5734813,10.8455295 11.373932,10.7774987 11.1712862,10.7906502 L11.1074211,10.7932047 C10.9694725,10.8034232 10.8315238,10.811087 10.6935752,10.8187508 L10.6680291,10.8187508 L10.6578107,10.8213054 C10.255026,10.8469514 9.94170575,11.1815326 9.9425198,11.5851322 C9.9425198,11.5979052 9.9425198,11.6106783 9.945076,11.6260059 C9.96551018,12.0328208 10.3015754,12.3520265 10.7089028,12.3515142 L10.7497765,12.3515142 L10.7497765,12.3515142 Z M7.83497254,15.4451399 C7.64337719,15.2739813 7.43389961,15.1385873 7.211649,15.0415123 C7.11201941,14.998084 7.00983523,14.9750926 6.90254184,14.9750926 C6.59854389,14.9750926 6.32264658,15.1539149 6.20002555,15.4298122 C6.1182782,15.6162984 6.11316898,15.825776 6.18469791,16.0173713 C6.25878145,16.2064121 6.40183932,16.3571337 6.59088006,16.4414357 C6.6726274,16.4797547 6.74160174,16.523183 6.81823988,16.5921574 C7.13633593,16.8710235 7.61975193,16.8413801 7.90139227,16.5257376 C8.02401328,16.387789 8.09298762,16.2115213 8.09298762,16.0275897 C8.0962558,15.8050586 8.00198142,15.5922412 7.83497254,15.4451399 L7.83497254,15.4451399 Z M6.95107932,11.0026823 C7.06092732,10.8289692 7.09413719,10.6220463 7.0481543,10.4227871 C7.00217141,10.2235279 6.87955039,10.054924 6.70583727,9.945076 C6.57555242,9.86588324 6.4452676,9.7790267 6.32264656,9.68961553 C5.98799336,9.45203729 5.48984543,9.53633924 5.25226721,9.86843785 C5.16030145,9.9987227 5.10920936,10.151999 5.10920936,10.3103845 C5.10920936,10.5581811 5.22927578,10.7932048 5.43108953,10.9388172 C5.58436582,11.0461106 5.7401967,11.1508494 5.89858219,11.2479244 C6.01864861,11.3245625 6.15915186,11.3628816 6.29965514,11.3628816 C6.56788863,11.3628816 6.81057607,11.2274876 6.95107932,11.0026823 L6.95107932,11.0026823 Z M9.49546559,17.1081875 C9.37284457,17.0417678 9.26044195,16.9727935 9.15825775,16.8987099 C8.82871375,16.6560225 8.32801123,16.7352152 8.0878784,17.0647592 C7.96727321,17.2282603 7.91672626,17.4330511 7.94740365,17.6338921 C7.97808104,17.8347332 8.0874582,18.0150964 8.25137311,18.1351386 C8.41486781,18.255205 8.59369014,18.365053 8.78273088,18.4646826 C8.89257889,18.5234385 9.0151999,18.5515391 9.13782092,18.5515391 C9.42393664,18.5515391 9.68450633,18.3957083 9.81734576,18.1428024 C9.91271384,17.963082 9.93236025,17.7527177 9.87192016,17.558446 C9.81148008,17.3641743 9.67595903,17.2020843 9.49546559,17.1081875 L9.49546559,17.1081875 Z M19.1748627,2.3476817 L15.1130412,0.0970749805 C14.875463,-0.0332098633 14.5867927,-0.0306552539 14.3517691,0.107293398 C14.1193,0.242687441 13.9762422,0.495593301 13.9762422,0.766381406 L13.9762422,7.02260824 C13.8842764,7.07114572 13.802529,7.13501084 13.7386639,7.21931281 C13.6135112,7.37919137 13.5574108,7.58244045 13.582833,7.78388045 C13.6083791,7.98824883 13.7105633,8.16962576 13.8715034,8.29480139 C14.0017882,8.39698557 14.132073,8.49916977 14.2572487,8.60135395 C14.3951973,8.71375654 14.5663559,8.77506705 14.7426236,8.77506705 C14.972538,8.77506705 15.1896794,8.67288287 15.3352919,8.49406055 C15.4630221,8.33822967 15.5166688,8.14918891 15.5038958,7.96525738 C15.5038958,7.95248436 15.509005,7.93971133 15.509005,7.92438371 L15.509005,5.72231447 L19.1748627,3.68629455 C19.4176702,3.55105308 19.5681913,3.29491928 19.5681913,3.01698813 C19.5681913,2.73905697 19.4176702,2.48292317 19.1748627,2.3476817 L19.1748627,2.3476817 Z M15.509005,3.96985566 L15.509005,2.06667518 L17.2231447,3.01698812 L15.509005,3.96985566 L15.509005,3.96985566 Z" id="形状" fill="url(#linearGradient-1)"></path>
                            </g>
                        </g>
                    </g>
                </g>
            </g>
        </g>
    </g>
</svg>