<?xml version="1.0" encoding="UTF-8"?>
<svg width="30px" height="30px" viewBox="0 0 30 30" version="1.1" xmlns="http://www.w3.org/2000/svg" xmlns:xlink="http://www.w3.org/1999/xlink">
    <!-- Generator: Sketch 60 (88103) - https://sketch.com -->
    <title>头像</title>
    <desc>Created with Sketch.</desc>
    <g id="切图" stroke="none" stroke-width="1" fill="none" fill-rule="evenodd">
        <g id="02-总体情况-展会概况-默认" transform="translate(-1748.000000, -13.000000)" fill-rule="nonzero">
            <g id="header">
                <g id="admin" transform="translate(1747.000000, 12.000000)">
                    <g id="头像">
                        <rect id="矩形" fill="#000000" opacity="0" x="0" y="0" width="32" height="32"></rect>
                        <path d="M16,1 C10.6410162,1 5.68911092,3.85898375 3.00961897,8.5 C0.330127011,13.1410161 0.330127011,18.8589839 3.00961897,23.5 C5.68911092,28.1410162 10.6410162,31 16,31 C24.2842713,31 31,24.2842712 31,16 C31,7.71572875 24.2842713,1 16,1 Z M15.9040001,6.256 C17.5188406,6.256 19.0110147,7.1175071 19.818435,8.51599998 C20.6258552,9.91449286 20.6258552,11.6375071 19.818435,13.036 C19.0110147,14.4344929 17.5188406,15.296 15.9040001,15.296 C13.4076731,15.296 11.3840001,13.2723271 11.3840001,10.776 C11.3840001,8.27967293 13.4076731,6.256 15.9040001,6.256 Z M8.00000017,24.192 C7.95400017,19.56 10.2180002,16.684 13.0560001,15.554 L15.9700001,20.416 L19.0400001,15.666 C21.7780001,16.866 23.9540001,19.708 23.9980001,24.196 C18.9640001,26.192 13.6580001,26.336 8.00000017,24.192 L8.00000017,24.192 Z" id="形状" fill="#FFFFFF"></path>
                    </g>
                </g>
            </g>
        </g>
    </g>
</svg>