<?xml version="1.0" encoding="UTF-8"?>
<svg width="30px" height="30px" viewBox="0 0 30 30" version="1.1" xmlns="http://www.w3.org/2000/svg" xmlns:xlink="http://www.w3.org/1999/xlink">
    <!-- Generator: Sketch 55.1 (78136) - https://sketchapp.com -->
    <title>免于入境</title>
    <desc>Created with Sketch.</desc>
    <g id="免于入境" stroke="none" stroke-width="1" fill="none" fill-rule="evenodd">
        <path d="M19,3 L5,3 C3.89678394,3.00326067 3.00326067,3.89678394 3,5 L3,25 C3.00326067,26.1032161 3.89678394,26.9967393 5,27 L25,27 C26.1032161,26.9967393 26.9967393,26.1032161 27,25 L27,11 L19,3 Z M17.5859375,19.4140625 L13,24 L11.5859375,22.5859375 L16.1715625,18 L11.5859375,13.4140625 L13,12 L17.5859375,16.5859375 L19,18 L17.5859375,19.4140625 Z M19,10 L5,10 L5,5 L19,5 L19,10 Z" id="Shape" fill="#1DEAFF" fill-rule="nonzero"></path>
    </g>
</svg>