<?xml version="1.0" encoding="UTF-8"?>
<svg width="30px" height="30px" viewBox="0 0 30 30" version="1.1" xmlns="http://www.w3.org/2000/svg" xmlns:xlink="http://www.w3.org/1999/xlink">
    <!-- Generator: Sketch 55.1 (78136) - https://sketchapp.com -->
    <title>特殊审批展品数</title>
    <desc>Created with Sketch.</desc>
    <g id="特殊审批展品数" stroke="none" stroke-width="1" fill="none" fill-rule="evenodd">
        <path d="M15.5000335,22.8222446 L9.64603345,25.8582446 C9.07603345,26.1552446 8.37503345,25.9322446 8.08103345,25.3622446 C7.96703345,25.1392446 7.92603345,24.8842446 7.96703345,24.6362446 L9.04503345,18.1302446 L4.34603345,13.5012446 C3.89003345,13.0502446 3.88303345,12.3142446 4.33503345,11.8562446 C4.51003345,11.6762446 4.74103345,11.5602446 4.98803345,11.5242446 L11.5090335,10.5402446 L14.4600335,4.64224457 C14.7470335,4.06724457 15.4460335,3.83624457 16.0190335,4.12324457 C16.2430335,4.23524457 16.4250335,4.41824457 16.5370335,4.64224457 L19.4890335,10.5402446 L26.0120335,11.5242446 C26.6470335,11.6212446 27.0830335,12.2122446 26.9860335,12.8462446 C26.9480335,13.0962446 26.8310335,13.3252446 26.6540335,13.5012446 L21.9570335,18.1302446 L23.0350335,24.6362446 C23.1410335,25.2702446 22.7120335,25.8682446 22.0790335,25.9732446 C21.8320335,26.0132446 21.5750335,25.9732446 21.3540335,25.8582446 L15.5000335,22.8222446 Z" id="Fill-1" fill="#1DEAFF"></path>
        <rect id="Rectangle-2" fill-opacity="0" fill="#FFFFFF" x="0" y="0" width="30" height="30"></rect>
    </g>
</svg>