<?xml version="1.0" encoding="UTF-8"?>
<svg width="16px" height="14px" viewBox="0 0 16 14" version="1.1" xmlns="http://www.w3.org/2000/svg" xmlns:xlink="http://www.w3.org/1999/xlink">
    <!-- Generator: Sketch 55.1 (78136) - https://sketchapp.com -->
    <title>楼层</title>
    <desc>Created with Sketch.</desc>
    <defs>
        <polygon id="path-1" points="0 0.0135609013 15.9856706 0.0135609013 15.9856706 13.9829732 0 13.9829732"></polygon>
    </defs>
    <g id="组件" stroke="none" stroke-width="1" fill="none" fill-rule="evenodd">
        <g id="一楼" transform="translate(-34.000000, -13.000000)">
            <g id="分组-5">
                <g transform="translate(34.000000, 9.000000)">
                    <g id="楼层" transform="translate(0.000000, 4.000000)">
                        <mask id="mask-2" fill="white">
                            <use xlink:href="#path-1"></use>
                        </mask>
                        <g id="Clip-2"></g>
                        <path d="M7.69613603,10.9611303 L2.27623379,7.9017637 C2.09185122,7.79772716 1.86676302,7.79772716 1.68244846,7.9017637 L0.309304995,8.67684531 C-0.102087141,8.90885993 -0.102087141,9.50289647 0.309304995,9.73496224 L7.69613603,13.904933 C7.88045058,14.0089866 8.10553879,14.0089866 8.28992136,13.904933 L15.6770755,9.73496224 C16.0882635,9.50289647 16.0882635,8.90885993 15.6770755,8.67684531 L14.303932,7.9017637 C14.1196174,7.79772716 13.8945292,7.79772716 13.7101467,7.9017637 L8.28992136,10.9611303 C8.10553879,11.0651839 7.88045058,11.0651839 7.69613603,10.9611303 Z M15.6772795,4.26174665 L8.28992136,0.0916394641 C8.10553879,-0.0124652862 7.88045058,-0.0124652862 7.69613603,0.0916394641 L0.308386823,4.26154202 C-0.102818278,4.49362485 -0.102818278,5.08745676 0.308386823,5.31972716 L7.69613603,9.48969793 C7.88045058,9.59375152 8.10553879,9.59375152 8.28992136,9.48969793 L15.6772795,5.31972716 C16.0884676,5.08766139 16.0884676,4.49382948 15.6772795,4.26154202 L15.6772795,4.26174665 Z" id="Fill-1" fill="#FFFFFF" mask="url(#mask-2)"></path>
                    </g>
                </g>
            </g>
        </g>
    </g>
</svg>