<?xml version="1.0" encoding="UTF-8"?>
<svg width="198px" height="2px" viewBox="0 0 198 2" version="1.1" xmlns="http://www.w3.org/2000/svg" xmlns:xlink="http://www.w3.org/1999/xlink">
    <!-- Generator: Sketch 57.1 (83088) - https://sketch.com -->
    <title>02</title>
    <desc>Created with Sketch.</desc>
    <g id="页面一" stroke="none" stroke-width="1" fill="none" fill-rule="evenodd">
        <g id="02-总体情况-往届对比-最字榜" transform="translate(-1270.000000, -379.000000)" fill="#D0D4D9">
            <g id="2018" transform="translate(776.000000, 329.000000)">
                <g id="编组-9" transform="translate(493.000000, 0.000000)">
                    <g id="02" transform="translate(1.000000, 50.000000)">
                        <path d="M114.5,1 L196.82832,1 C197.104462,1 197.32832,1.22385763 197.32832,1.5 C197.32832,1.77614237 197.104462,2 196.82832,2 L114.5,2 C114.223858,2 114,1.77614237 114,1.5 C114,1.22385763 114.223858,1 114.5,1 Z" id="矩形" opacity="0.300000012" transform="translate(155.664160, 1.500000) scale(1, -1) translate(-155.664160, -1.500000) "></path>
                        <polygon id="矩形" points="0 0 80 0 82.2750961 2 0 2"></polygon>
                        <polygon id="矩形备份-8" transform="translate(85.154701, 1.000000) scale(-1, 1) translate(-85.154701, -1.000000) " points="84.3094011 0 88.3094011 0 86 2 82 2"></polygon>
                        <polygon id="矩形备份-9" transform="translate(92.154701, 1.000000) scale(-1, 1) translate(-92.154701, -1.000000) " points="91.3094011 0 95.3094011 0 93 2 89 2"></polygon>
                        <polygon id="矩形备份-10" transform="translate(99.154701, 1.000000) scale(-1, 1) translate(-99.154701, -1.000000) " points="98.3094011 0 102.309401 0 100 2 96 2"></polygon>
                        <polygon id="矩形备份-11" transform="translate(106.154701, 1.000000) scale(-1, 1) translate(-106.154701, -1.000000) " points="105.309401 0 109.309401 0 107 2 103 2"></polygon>
                        <polygon id="矩形备份-12" transform="translate(113.154701, 1.000000) scale(-1, 1) translate(-113.154701, -1.000000) " points="112.309401 0 116.309401 0 114 2 110 2"></polygon>
                    </g>
                </g>
            </g>
        </g>
    </g>
</svg>