<?xml version="1.0" encoding="UTF-8"?>
<svg width="198px" height="2px" viewBox="0 0 198 2" version="1.1" xmlns="http://www.w3.org/2000/svg" xmlns:xlink="http://www.w3.org/1999/xlink">
    <!-- Generator: Sketch 57.1 (83088) - https://sketch.com -->
    <title>01</title>
    <desc>Created with Sketch.</desc>
    <g id="页面一" stroke="none" stroke-width="1" fill="none" fill-rule="evenodd">
        <g id="02-总体情况-往届对比-最字榜" transform="translate(-1040.000000, -379.000000)" fill="#F9D07E">
            <g id="2018" transform="translate(776.000000, 329.000000)">
                <g id="编组-8" transform="translate(264.000000, 0.000000)">
                    <g id="01" transform="translate(0.000000, 50.000000)">
                        <path d="M114.5,1 L196.82832,1 C197.104462,1 197.32832,1.22385763 197.32832,1.5 C197.32832,1.77614237 197.104462,2 196.82832,2 L114.5,2 C114.223858,2 114,1.77614237 114,1.5 C114,1.22385763 114.223858,1 114.5,1 Z" id="矩形" opacity="0.300000012" transform="translate(155.664160, 1.500000) scale(1, -1) translate(-155.664160, -1.500000) "></path>
                        <polygon id="矩形" points="0 0 80 0 82.2750961 2 0 2"></polygon>
                        <path d="M86,0 L88.3094011,2 L84.3094011,2 L82,0 L86,0 Z M93,0 L95.3094011,2 L91.3094011,2 L89,0 L93,0 Z M100,0 L102.309401,2 L98.3094011,2 L96,0 L100,0 Z M107,0 L109.309401,2 L105.309401,2 L103,0 L107,0 Z M114,0 L116.309401,2 L112.309401,2 L110,0 L114,0 Z" id="形状结合"></path>
                    </g>
                </g>
            </g>
        </g>
    </g>
</svg>