<?xml version="1.0" encoding="UTF-8"?>
<svg width="102px" height="111px" viewBox="0 0 102 111" version="1.1" xmlns="http://www.w3.org/2000/svg" xmlns:xlink="http://www.w3.org/1999/xlink">
    <!-- Generator: Sketch 57.1 (83088) - https://sketch.com -->
    <title>编组 2</title>
    <desc>Created with Sketch.</desc>
    <defs>
        <circle id="path-1" cx="16" cy="16" r="9"></circle>
        <filter x="-22.2%" y="-22.2%" width="144.4%" height="144.4%" filterUnits="objectBoundingBox" id="filter-3">
            <feGaussianBlur stdDeviation="3.5" in="SourceAlpha" result="shadowBlurInner1"></feGaussianBlur>
            <feOffset dx="0" dy="0" in="shadowBlurInner1" result="shadowOffsetInner1"></feOffset>
            <feComposite in="shadowOffsetInner1" in2="SourceAlpha" operator="arithmetic" k2="-1" k3="1" result="shadowInnerInner1"></feComposite>
            <feColorMatrix values="0 0 0 0 0.976470588   0 0 0 0 0.815686275   0 0 0 0 0.494117647  0 0 0 1 0" type="matrix" in="shadowInnerInner1"></feColorMatrix>
        </filter>
    </defs>
    <g id="组件" stroke="none" stroke-width="1" fill="none" fill-rule="evenodd">
        <g id="最字榜-1st" transform="translate(3.000000, -4.000000)">
            <g id="最字榜list" transform="translate(-10.000000, 0.000000)">
                <g id="编组-2" transform="translate(10.000000, 0.000000)">
                    <circle id="椭圆形" stroke="#F9D07E" stroke-width="6" opacity="0.300000012" cx="48" cy="64" r="48"></circle>
                    <path d="M48,22 C24.8040405,22 6,40.8040405 6,64 M48,106 L48,106 C71.1959595,106 90,87.1959595 90,64" id="形状" stroke="#F9D07E" opacity="0.600000024"></path>
                    <g id="1st" transform="translate(31.000000, 0.000000)">
                        <g>
                            <mask id="mask-2" fill="white">
                                <use xlink:href="#path-1"></use>
                            </mask>
                            <g id="蒙版">
                                <use fill="#0C1435" fill-rule="evenodd" xlink:href="#path-1"></use>
                                <use fill="black" fill-opacity="1" filter="url(#filter-3)" xlink:href="#path-1"></use>
                                <use stroke="#F9D07E" stroke-width="1" xlink:href="#path-1"></use>
                            </g>
                            <path d="M16,27 C22.0751322,27 27,22.0751322 27,16 C27,9.92486775 22.0751322,5 16,5 C9.92486775,5 5,9.92486775 5,16 C5,22.0751322 9.92486775,27 16,27 Z" id="椭圆形" stroke="#F9D07E" opacity="0.600000024" stroke-dasharray="34,69.08000183105469" transform="translate(16.000000, 16.000000) scale(1, -1) rotate(-299.000000) translate(-16.000000, -16.000000) "></path>
                            <path d="M16,27 C22.0751322,27 27,22.0751322 27,16 C27,9.92486775 22.0751322,5 16,5 C9.92486775,5 5,9.92486775 5,16 C5,22.0751322 9.92486775,27 16,27 Z" id="椭圆形" stroke="#F9D07E" opacity="0.400000006" stroke-dasharray="22,69.08000183105469" transform="translate(16.000000, 16.000000) scale(1, -1) rotate(-122.000000) translate(-16.000000, -16.000000) "></path>
                            <path d="M16,27 C22.0751322,27 27,22.0751322 27,16 C27,9.92486775 22.0751322,5 16,5 C9.92486775,5 5,9.92486775 5,16 C5,22.0751322 9.92486775,27 16,27 Z" id="椭圆形" stroke="#F9D07E" opacity="0.200000003" stroke-dasharray="10,69.08000183105469" transform="translate(16.000000, 16.000000) scale(1, -1) rotate(-242.000000) translate(-16.000000, -16.000000) "></path>
                            <text id="1" font-family="DIN-Medium, DIN" font-size="14" font-weight="400" line-spacing="14" fill="#F9D07E">
                                <tspan x="12" y="22">1</tspan>
                            </text>
                        </g>
                    </g>
                </g>
            </g>
        </g>
    </g>
</svg>