<?xml version="1.0" encoding="UTF-8"?>
<svg width="89px" height="50px" viewBox="0 0 89 50" version="1.1" xmlns="http://www.w3.org/2000/svg" xmlns:xlink="http://www.w3.org/1999/xlink">
    <!-- Generator: Sketch 57.1 (83088) - https://sketch.com -->
    <title>侧拉</title>
    <desc>Created with Sketch.</desc>
    <defs>
        <path d="M21.0133188,0 L90,0 L90,0 L90,50 L20.9810518,50 C19.7406687,50 18.5704669,49.4245628 17.8131481,48.4422092 L1.85766738,27.745609 C0.759959154,26.3217203 0.747129589,24.3404044 1.8263064,22.9024198 L17.8140541,1.59901997 C18.5695213,0.592372862 19.7547208,1.11937913e-15 21.0133188,0 Z" id="path-1"></path>
        <filter x="-4.4%" y="-10.0%" width="110.0%" height="120.0%" filterUnits="objectBoundingBox" id="filter-2">
            <feGaussianBlur stdDeviation="5" in="SourceAlpha" result="shadowBlurInner1"></feGaussianBlur>
            <feOffset dx="0" dy="0" in="shadowBlurInner1" result="shadowOffsetInner1"></feOffset>
            <feComposite in="shadowOffsetInner1" in2="SourceAlpha" operator="arithmetic" k2="-1" k3="1" result="shadowInnerInner1"></feComposite>
            <feColorMatrix values="0 0 0 0 0   0 0 0 0 0.756862745   0 0 0 0 1  0 0 0 1 0" type="matrix" in="shadowInnerInner1"></feColorMatrix>
        </filter>
    </defs>
    <g id="页面-1" stroke="none" stroke-width="1" fill="none" fill-rule="evenodd">
        <g id="1.1" transform="translate(-1732.000000, -181.000000)">
            <g id="侧拉" transform="translate(1731.000000, 181.000000)">
                <g>
                    <g id="矩形">
                        <use fill="#143587" fill-rule="evenodd" xlink:href="#path-1"></use>
                        <use fill="black" fill-opacity="1" filter="url(#filter-2)" xlink:href="#path-1"></use>
                        <path stroke="#00C1FF" stroke-width="1" d="M89.5,49.5 L89.5,0.5 L21.0133188,0.5 C19.9120455,0.5 18.874996,1.01832625 18.2139622,1.89914247 L2.2262145,23.2025423 C1.28193478,24.4607788 1.29316065,26.1944302 2.25365535,27.4403328 L18.209136,48.136933 C18.87179,48.9964925 19.8957166,49.5 20.9810518,49.5 L89.5,49.5 Z" stroke-linejoin="square"></path>
                    </g>
                    <path d="M59.6338142,23.4972227 L59.6338142,23.5442865 L53.4416705,23.5442865 L53.4416705,17.874889 C53.4405456,17.8393281 53.4316191,17.8064523 53.4316191,17.7701656 C53.4316191,17.7347135 53.4405456,17.701112 53.4416705,17.6655511 L53.4416705,17.6332196 L53.4443557,17.6332196 C53.5190701,14.5105678 56.061425,12 59.2013493,12 C62.387902,12 64.9722044,14.5834315 64.9722044,17.7701656 C64.9722044,20.8091766 62.6149842,23.2721363 59.6338142,23.4972227 Z M50.5303887,32.3665989 L50.5277035,32.3665989 C50.4529892,35.4886702 47.9106342,37.9998549 44.7708551,37.9998549 C41.5828872,37.9998549 39,35.4163871 39,32.2289635 C39,29.1906782 41.3570751,26.7277186 44.3382451,26.502487 L44.3382451,26.4557135 L50.5303887,26.4557135 L50.5303887,32.1242401 C50.5316587,32.159801 50.5417102,32.1934025 50.5417102,32.2289635 C50.5417102,32.2656856 50.5316587,32.2981622 50.5303887,32.3343038 L50.5303887,32.3665989 Z M50.5303887,23.5442865 L44.3382451,23.5442865 L44.3382451,23.4972227 C41.3570751,23.2721363 39,20.8091766 39,17.7701656 C39,14.5834315 41.5828872,12 44.7708551,12 C47.9106342,12 50.4529892,14.5105678 50.5277035,17.6332196 L50.5303887,17.6332196 L50.5303887,17.6655511 C50.5316587,17.701112 50.5417102,17.7347135 50.5417102,17.7701656 C50.5417102,17.8064523 50.5316587,17.8393281 50.5303887,17.874889 L50.5303887,23.5442865 Z M53.4416705,26.4557135 L59.6338142,26.4557135 L59.6338142,26.5026322 C62.6149842,26.7277186 64.9722044,29.1906782 64.9722044,32.2289635 C64.9722044,35.4163871 62.387902,38 59.2012042,38 C56.061425,38 53.5190701,35.4888153 53.4443557,32.3665989 L53.4416705,32.3665989 L53.4416705,32.3344489 C53.4405456,32.2981622 53.4316191,32.2656856 53.4316191,32.2289635 C53.4316191,32.1935477 53.4405456,32.159801 53.4416705,32.1243852 L53.4416705,26.4557135 Z" id="Fill-1" fill="#00C1FF"></path>
                </g>
            </g>
        </g>
    </g>
</svg>