<?xml version="1.0" encoding="UTF-8"?>
<svg width="741px" height="778px" viewBox="0 0 741 778" version="1.1" xmlns="http://www.w3.org/2000/svg" xmlns:xlink="http://www.w3.org/1999/xlink">
    <!-- Generator: Sketch 57.1 (83088) - https://sketch.com -->
    <title>北广场</title>
    <desc>Created with Sketch.</desc>
    <defs>
        <filter x="-4.3%" y="-4.1%" width="108.7%" height="108.2%" filterUnits="objectBoundingBox" id="filter-1">
            <feGaussianBlur stdDeviation="10" in="SourceGraphic"></feGaussianBlur>
        </filter>
        <rect id="path-2" x="287" y="583" width="57" height="42"></rect>
        <filter x="-8.8%" y="-11.9%" width="117.5%" height="123.8%" filterUnits="objectBoundingBox" id="filter-3">
            <feGaussianBlur stdDeviation="5" in="SourceAlpha" result="shadowBlurInner1"></feGaussianBlur>
            <feOffset dx="0" dy="0" in="shadowBlurInner1" result="shadowOffsetInner1"></feOffset>
            <feComposite in="shadowOffsetInner1" in2="SourceAlpha" operator="arithmetic" k2="-1" k3="1" result="shadowInnerInner1"></feComposite>
            <feColorMatrix values="0 0 0 0 0   0 0 0 0 0.756862745   0 0 0 0 1  0 0 0 1 0" type="matrix" in="shadowInnerInner1"></feColorMatrix>
        </filter>
        <rect id="path-4" x="262" y="509" width="57" height="42"></rect>
        <filter x="-8.8%" y="-11.9%" width="117.5%" height="123.8%" filterUnits="objectBoundingBox" id="filter-5">
            <feGaussianBlur stdDeviation="5" in="SourceAlpha" result="shadowBlurInner1"></feGaussianBlur>
            <feOffset dx="0" dy="0" in="shadowBlurInner1" result="shadowOffsetInner1"></feOffset>
            <feComposite in="shadowOffsetInner1" in2="SourceAlpha" operator="arithmetic" k2="-1" k3="1" result="shadowInnerInner1"></feComposite>
            <feColorMatrix values="0 0 0 0 0   0 0 0 0 0.756862745   0 0 0 0 1  0 0 0 1 0" type="matrix" in="shadowInnerInner1"></feColorMatrix>
        </filter>
        <rect id="path-6" x="262" y="439" width="57" height="63"></rect>
        <filter x="-8.8%" y="-7.9%" width="117.5%" height="115.9%" filterUnits="objectBoundingBox" id="filter-7">
            <feGaussianBlur stdDeviation="5" in="SourceAlpha" result="shadowBlurInner1"></feGaussianBlur>
            <feOffset dx="0" dy="0" in="shadowBlurInner1" result="shadowOffsetInner1"></feOffset>
            <feComposite in="shadowOffsetInner1" in2="SourceAlpha" operator="arithmetic" k2="-1" k3="1" result="shadowInnerInner1"></feComposite>
            <feColorMatrix values="0 0 0 0 0   0 0 0 0 0.756862745   0 0 0 0 1  0 0 0 1 0" type="matrix" in="shadowInnerInner1"></feColorMatrix>
        </filter>
        <rect id="path-8" x="205" y="463" width="41" height="88"></rect>
        <filter x="-12.2%" y="-5.7%" width="124.4%" height="111.4%" filterUnits="objectBoundingBox" id="filter-9">
            <feGaussianBlur stdDeviation="5" in="SourceAlpha" result="shadowBlurInner1"></feGaussianBlur>
            <feOffset dx="0" dy="0" in="shadowBlurInner1" result="shadowOffsetInner1"></feOffset>
            <feComposite in="shadowOffsetInner1" in2="SourceAlpha" operator="arithmetic" k2="-1" k3="1" result="shadowInnerInner1"></feComposite>
            <feColorMatrix values="0 0 0 0 0   0 0 0 0 0.756862745   0 0 0 0 1  0 0 0 1 0" type="matrix" in="shadowInnerInner1"></feColorMatrix>
        </filter>
        <rect id="path-10" x="135" y="497" width="54" height="54"></rect>
        <filter x="-9.3%" y="-9.3%" width="118.5%" height="118.5%" filterUnits="objectBoundingBox" id="filter-11">
            <feGaussianBlur stdDeviation="5" in="SourceAlpha" result="shadowBlurInner1"></feGaussianBlur>
            <feOffset dx="0" dy="0" in="shadowBlurInner1" result="shadowOffsetInner1"></feOffset>
            <feComposite in="shadowOffsetInner1" in2="SourceAlpha" operator="arithmetic" k2="-1" k3="1" result="shadowInnerInner1"></feComposite>
            <feColorMatrix values="0 0 0 0 0   0 0 0 0 0.756862745   0 0 0 0 1  0 0 0 1 0" type="matrix" in="shadowInnerInner1"></feColorMatrix>
        </filter>
        <rect id="path-12" x="135" y="441" width="54" height="37"></rect>
        <filter x="-9.3%" y="-13.5%" width="118.5%" height="127.0%" filterUnits="objectBoundingBox" id="filter-13">
            <feGaussianBlur stdDeviation="5" in="SourceAlpha" result="shadowBlurInner1"></feGaussianBlur>
            <feOffset dx="0" dy="0" in="shadowBlurInner1" result="shadowOffsetInner1"></feOffset>
            <feComposite in="shadowOffsetInner1" in2="SourceAlpha" operator="arithmetic" k2="-1" k3="1" result="shadowInnerInner1"></feComposite>
            <feColorMatrix values="0 0 0 0 0   0 0 0 0 0.756862745   0 0 0 0 1  0 0 0 1 0" type="matrix" in="shadowInnerInner1"></feColorMatrix>
        </filter>
        <rect id="path-14" x="66" y="441" width="54" height="56"></rect>
        <filter x="-9.3%" y="-8.9%" width="118.5%" height="117.9%" filterUnits="objectBoundingBox" id="filter-15">
            <feGaussianBlur stdDeviation="5" in="SourceAlpha" result="shadowBlurInner1"></feGaussianBlur>
            <feOffset dx="0" dy="0" in="shadowBlurInner1" result="shadowOffsetInner1"></feOffset>
            <feComposite in="shadowOffsetInner1" in2="SourceAlpha" operator="arithmetic" k2="-1" k3="1" result="shadowInnerInner1"></feComposite>
            <feColorMatrix values="0 0 0 0 0   0 0 0 0 0.756862745   0 0 0 0 1  0 0 0 1 0" type="matrix" in="shadowInnerInner1"></feColorMatrix>
        </filter>
        <rect id="path-16" x="0" y="441" width="57" height="110"></rect>
        <filter x="-8.8%" y="-4.5%" width="117.5%" height="109.1%" filterUnits="objectBoundingBox" id="filter-17">
            <feGaussianBlur stdDeviation="5" in="SourceAlpha" result="shadowBlurInner1"></feGaussianBlur>
            <feOffset dx="0" dy="0" in="shadowBlurInner1" result="shadowOffsetInner1"></feOffset>
            <feComposite in="shadowOffsetInner1" in2="SourceAlpha" operator="arithmetic" k2="-1" k3="1" result="shadowInnerInner1"></feComposite>
            <feColorMatrix values="0 0 0 0 0   0 0 0 0 0.756862745   0 0 0 0 1  0 0 0 1 0" type="matrix" in="shadowInnerInner1"></feColorMatrix>
        </filter>
        <rect id="path-18" x="18" y="315" width="94" height="60"></rect>
        <filter x="-5.3%" y="-8.3%" width="110.6%" height="116.7%" filterUnits="objectBoundingBox" id="filter-19">
            <feGaussianBlur stdDeviation="5" in="SourceAlpha" result="shadowBlurInner1"></feGaussianBlur>
            <feOffset dx="0" dy="0" in="shadowBlurInner1" result="shadowOffsetInner1"></feOffset>
            <feComposite in="shadowOffsetInner1" in2="SourceAlpha" operator="arithmetic" k2="-1" k3="1" result="shadowInnerInner1"></feComposite>
            <feColorMatrix values="0 0 0 0 0   0 0 0 0 0.756862745   0 0 0 0 1  0 0 0 1 0" type="matrix" in="shadowInnerInner1"></feColorMatrix>
        </filter>
        <rect id="path-20" x="0" y="141" width="56" height="110"></rect>
        <filter x="-8.9%" y="-4.5%" width="117.9%" height="109.1%" filterUnits="objectBoundingBox" id="filter-21">
            <feGaussianBlur stdDeviation="5" in="SourceAlpha" result="shadowBlurInner1"></feGaussianBlur>
            <feOffset dx="0" dy="0" in="shadowBlurInner1" result="shadowOffsetInner1"></feOffset>
            <feComposite in="shadowOffsetInner1" in2="SourceAlpha" operator="arithmetic" k2="-1" k3="1" result="shadowInnerInner1"></feComposite>
            <feColorMatrix values="0 0 0 0 0   0 0 0 0 0.756862745   0 0 0 0 1  0 0 0 1 0" type="matrix" in="shadowInnerInner1"></feColorMatrix>
        </filter>
        <rect id="path-22" x="66" y="518" width="54" height="33"></rect>
        <filter x="-9.3%" y="-15.2%" width="118.5%" height="130.3%" filterUnits="objectBoundingBox" id="filter-23">
            <feGaussianBlur stdDeviation="5" in="SourceAlpha" result="shadowBlurInner1"></feGaussianBlur>
            <feOffset dx="0" dy="0" in="shadowBlurInner1" result="shadowOffsetInner1"></feOffset>
            <feComposite in="shadowOffsetInner1" in2="SourceAlpha" operator="arithmetic" k2="-1" k3="1" result="shadowInnerInner1"></feComposite>
            <feColorMatrix values="0 0 0 0 0   0 0 0 0 0.756862745   0 0 0 0 1  0 0 0 1 0" type="matrix" in="shadowInnerInner1"></feColorMatrix>
        </filter>
        <rect id="path-24" x="329" y="439" width="57" height="112"></rect>
        <filter x="-8.8%" y="-4.5%" width="117.5%" height="108.9%" filterUnits="objectBoundingBox" id="filter-25">
            <feGaussianBlur stdDeviation="5" in="SourceAlpha" result="shadowBlurInner1"></feGaussianBlur>
            <feOffset dx="0" dy="0" in="shadowBlurInner1" result="shadowOffsetInner1"></feOffset>
            <feComposite in="shadowOffsetInner1" in2="SourceAlpha" operator="arithmetic" k2="-1" k3="1" result="shadowInnerInner1"></feComposite>
            <feColorMatrix values="0 0 0 0 0   0 0 0 0 0.756862745   0 0 0 0 1  0 0 0 1 0" type="matrix" in="shadowInnerInner1"></feColorMatrix>
        </filter>
        <rect id="path-26" x="287" y="648" width="57" height="42"></rect>
        <filter x="-8.8%" y="-11.9%" width="117.5%" height="123.8%" filterUnits="objectBoundingBox" id="filter-27">
            <feGaussianBlur stdDeviation="5" in="SourceAlpha" result="shadowBlurInner1"></feGaussianBlur>
            <feOffset dx="0" dy="0" in="shadowBlurInner1" result="shadowOffsetInner1"></feOffset>
            <feComposite in="shadowOffsetInner1" in2="SourceAlpha" operator="arithmetic" k2="-1" k3="1" result="shadowInnerInner1"></feComposite>
            <feColorMatrix values="0 0 0 0 0   0 0 0 0 0.756862745   0 0 0 0 1  0 0 0 1 0" type="matrix" in="shadowInnerInner1"></feColorMatrix>
        </filter>
        <rect id="path-28" x="216" y="583" width="57" height="107"></rect>
        <filter x="-8.8%" y="-4.7%" width="117.5%" height="109.3%" filterUnits="objectBoundingBox" id="filter-29">
            <feGaussianBlur stdDeviation="5" in="SourceAlpha" result="shadowBlurInner1"></feGaussianBlur>
            <feOffset dx="0" dy="0" in="shadowBlurInner1" result="shadowOffsetInner1"></feOffset>
            <feComposite in="shadowOffsetInner1" in2="SourceAlpha" operator="arithmetic" k2="-1" k3="1" result="shadowInnerInner1"></feComposite>
            <feColorMatrix values="0 0 0 0 0   0 0 0 0 0.756862745   0 0 0 0 1  0 0 0 1 0" type="matrix" in="shadowInnerInner1"></feColorMatrix>
        </filter>
        <rect id="path-30" x="122" y="583" width="83" height="107"></rect>
        <filter x="-6.0%" y="-4.7%" width="112.0%" height="109.3%" filterUnits="objectBoundingBox" id="filter-31">
            <feGaussianBlur stdDeviation="5" in="SourceAlpha" result="shadowBlurInner1"></feGaussianBlur>
            <feOffset dx="0" dy="0" in="shadowBlurInner1" result="shadowOffsetInner1"></feOffset>
            <feComposite in="shadowOffsetInner1" in2="SourceAlpha" operator="arithmetic" k2="-1" k3="1" result="shadowInnerInner1"></feComposite>
            <feColorMatrix values="0 0 0 0 0   0 0 0 0 0.756862745   0 0 0 0 1  0 0 0 1 0" type="matrix" in="shadowInnerInner1"></feColorMatrix>
        </filter>
        <rect id="path-32" x="0" y="583" width="106" height="107"></rect>
        <filter x="-4.7%" y="-4.7%" width="109.4%" height="109.3%" filterUnits="objectBoundingBox" id="filter-33">
            <feGaussianBlur stdDeviation="5" in="SourceAlpha" result="shadowBlurInner1"></feGaussianBlur>
            <feOffset dx="0" dy="0" in="shadowBlurInner1" result="shadowOffsetInner1"></feOffset>
            <feComposite in="shadowOffsetInner1" in2="SourceAlpha" operator="arithmetic" k2="-1" k3="1" result="shadowInnerInner1"></feComposite>
            <feColorMatrix values="0 0 0 0 0   0 0 0 0 0.756862745   0 0 0 0 1  0 0 0 1 0" type="matrix" in="shadowInnerInner1"></feColorMatrix>
        </filter>
    </defs>
    <g id="页面-1" stroke="none" stroke-width="1" fill="none" fill-rule="evenodd">
        <g id="北广场" transform="translate(-572.000000, -220.000000)">
            <g transform="translate(597.000000, 244.000000)">
                <g id="编组" transform="translate(345.500000, 364.500000) rotate(-360.000000) translate(-345.500000, -364.500000) ">
                    <polygon id="路径-20" fill="#1F5FF2" filter="url(#filter-1)" points="0 0 541.066038 26.0939597 691 202.228188 691 654.795302 532.917453 729 0 729"></polygon>
                    <polygon id="路径-20" stroke="#00AAFF" fill="#0C1435" stroke-linecap="round" stroke-linejoin="round" points="0 0 541.066038 26.0939597 691 202.228188 691 654.795302 532.917453 729 0 729"></polygon>
                </g>
                <g id="编组-2" transform="translate(25.000000, 17.000000)">
                    <g id="0A1-002" class="exhibitionNum">
                        <use fill="#143587" fill-rule="evenodd" xlink:href="#path-2"></use>
                        <use fill="black" fill-opacity="1" filter="url(#filter-3)" xlink:href="#path-2"></use>
                        <rect stroke="#00C1FF" stroke-width="1" stroke-linejoin="square" x="287.5" y="583.5" width="56" height="41"></rect>
                    </g>
                    <g id="0A1-001" class="exhibitionNum">
                        <use fill="#143587" fill-rule="evenodd" xlink:href="#path-4"></use>
                        <use fill="black" fill-opacity="1" filter="url(#filter-5)" xlink:href="#path-4"></use>
                        <rect stroke="#00C1FF" stroke-width="1" stroke-linejoin="square" x="262.5" y="509.5" width="56" height="41"></rect>
                    </g>
                    <g id="0A1-006" class="exhibitionNum">
                        <use fill="#143587" fill-rule="evenodd" xlink:href="#path-6"></use>
                        <use fill="black" fill-opacity="1" filter="url(#filter-7)" xlink:href="#path-6"></use>
                        <rect stroke="#00C1FF" stroke-width="1" stroke-linejoin="square" x="262.5" y="439.5" width="56" height="62"></rect>
                    </g>
                    <g id="0A1-003" class="exhibitionNum">
                        <use fill="#143587" fill-rule="evenodd" xlink:href="#path-8"></use>
                        <use fill="black" fill-opacity="1" filter="url(#filter-9)" xlink:href="#path-8"></use>
                        <rect stroke="#00C1FF" stroke-width="1" stroke-linejoin="square" x="205.5" y="463.5" width="40" height="87"></rect>
                    </g>
                    <g id="0A2-001" class="exhibitionNum">
                        <use fill="#143587" fill-rule="evenodd" xlink:href="#path-10"></use>
                        <use fill="black" fill-opacity="1" filter="url(#filter-11)" xlink:href="#path-10"></use>
                        <rect stroke="#00C1FF" stroke-width="1" stroke-linejoin="square" x="135.5" y="497.5" width="53" height="53"></rect>
                    </g>
                    <g id="0A1-005" class="exhibitionNum">
                        <use fill="#143587" fill-rule="evenodd" xlink:href="#path-12"></use>
                        <use fill="black" fill-opacity="1" filter="url(#filter-13)" xlink:href="#path-12"></use>
                        <rect stroke="#00C1FF" stroke-width="1" stroke-linejoin="square" x="135.5" y="441.5" width="53" height="36"></rect>
                    </g>
                    <g id="0A2-003" class="exhibitionNum">
                        <use fill="#143587" fill-rule="evenodd" xlink:href="#path-14"></use>
                        <use fill="black" fill-opacity="1" filter="url(#filter-15)" xlink:href="#path-14"></use>
                        <rect stroke="#00C1FF" stroke-width="1" stroke-linejoin="square" x="66.5" y="441.5" width="53" height="55"></rect>
                    </g>
                    <g id="0A1-007" class="exhibitionNum">
                        <use fill="#143587" fill-rule="evenodd" xlink:href="#path-16"></use>
                        <use fill="black" fill-opacity="1" filter="url(#filter-17)" xlink:href="#path-16"></use>
                        <rect stroke="#00C1FF" stroke-width="1" stroke-linejoin="square" x="0.5" y="441.5" width="56" height="109"></rect>
                    </g>
                    <g id="0B1-003" class="exhibitionNum">
                        <use fill="#143587" fill-rule="evenodd" xlink:href="#path-18"></use>
                        <use fill="black" fill-opacity="1" filter="url(#filter-19)" xlink:href="#path-18"></use>
                        <rect stroke="#00C1FF" stroke-width="1" stroke-linejoin="square" x="18.5" y="315.5" width="93" height="59"></rect>
                    </g>
                    <g id="0B1-002" class="exhibitionNum">
                        <use fill="#143587" fill-rule="evenodd" xlink:href="#path-20"></use>
                        <use fill="black" fill-opacity="1" filter="url(#filter-21)" xlink:href="#path-20"></use>
                        <rect stroke="#00C1FF" stroke-width="1" stroke-linejoin="square" x="0.5" y="141.5" width="55" height="109"></rect>
                    </g>
                    <g id="0A1-004" class="exhibitionNum">
                        <use fill="#143587" fill-rule="evenodd" xlink:href="#path-22"></use>
                        <use fill="black" fill-opacity="1" filter="url(#filter-23)" xlink:href="#path-22"></use>
                        <rect stroke="#00C1FF" stroke-width="1" stroke-linejoin="square" x="66.5" y="518.5" width="53" height="32"></rect>
                    </g>
                    <g id="0A1-008" class="exhibitionNum">
                        <use fill="#143587" fill-rule="evenodd" xlink:href="#path-24"></use>
                        <use fill="black" fill-opacity="1" filter="url(#filter-25)" xlink:href="#path-24"></use>
                        <rect stroke="#00C1FF" stroke-width="1" stroke-linejoin="square" x="329.5" y="439.5" width="56" height="111"></rect>
                    </g>
                    <g id="矩形备份-21">
                        <use fill="#143587" fill-rule="evenodd" xlink:href="#path-26"></use>
                        <use fill="black" fill-opacity="1" filter="url(#filter-27)" xlink:href="#path-26"></use>
                        <rect stroke="#00C1FF" stroke-width="1" stroke-linejoin="square" x="287.5" y="648.5" width="56" height="41"></rect>
                    </g>
                    <g id="0A3-002" class="exhibitionNum">
                        <use fill="#143587" fill-rule="evenodd" xlink:href="#path-28"></use>
                        <use fill="black" fill-opacity="1" filter="url(#filter-29)" xlink:href="#path-28"></use>
                        <rect stroke="#00C1FF" stroke-width="1" stroke-linejoin="square" x="216.5" y="583.5" width="56" height="106"></rect>
                    </g>
                    <g id="0A3-003" class="exhibitionNum">
                        <use fill="#143587" fill-rule="evenodd" xlink:href="#path-30"></use>
                        <use fill="black" fill-opacity="1" filter="url(#filter-31)" xlink:href="#path-30"></use>
                        <rect stroke="#00C1FF" stroke-width="1" stroke-linejoin="square" x="122.5" y="583.5" width="82" height="106"></rect>
                    </g>
                    <g id="0A3-004" class="exhibitionNum">
                        <use fill="#143587" fill-rule="evenodd" xlink:href="#path-32"></use>
                        <use fill="black" fill-opacity="1" filter="url(#filter-33)" xlink:href="#path-32"></use>
                        <rect stroke="#00C1FF" stroke-width="1" stroke-linejoin="square" x="0.5" y="583.5" width="105" height="106"></rect>
                    </g>
                    <text class="0A1-002" transform="translate(315.000000, 604.000000) rotate(-360.000000) translate(-315.000000, -604.000000) " font-family="PingFangSC-Bold, PingFang SC" font-size="14" font-weight="bold" line-spacing="18" fill="#FFFFFF">
                        <tspan x="285" y="610">0A1-002</tspan>
                    </text>
                    <text class="0A3--002" transform="translate(245.000000, 637.000000) rotate(-360.000000) translate(-245.000000, -637.000000) " font-family="PingFangSC-Bold, PingFang SC" font-size="14" font-weight="bold" line-spacing="18" fill="#FFFFFF">
                        <tspan x="231.717" y="634">0A3</tspan>
                        <tspan x="228" y="652">-002</tspan>
                    </text>
                    <text class="0A1--001" transform="translate(291.000000, 530.000000) rotate(-360.000000) translate(-291.000000, -530.000000) " font-family="PingFangSC-Bold, PingFang SC" font-size="14" font-weight="bold" line-spacing="18" fill="#FFFFFF">
                        <tspan x="277.717" y="527">0A1</tspan>
                        <tspan x="274" y="545">-001</tspan>
                    </text>
                    <text class="0A1--006" transform="translate(291.000000, 471.000000) rotate(-360.000000) translate(-291.000000, -471.000000) " font-family="PingFangSC-Bold, PingFang SC" font-size="14" font-weight="bold" line-spacing="18" fill="#FFFFFF">
                        <tspan x="277.717" y="468">0A1</tspan>
                        <tspan x="274" y="486">-006</tspan>
                    </text>
                    <text class="0A1--003" transform="translate(226.000000, 509.000000) rotate(-360.000000) translate(-226.000000, -509.000000) " font-family="PingFangSC-Bold, PingFang SC" font-size="14" font-weight="bold" line-spacing="18" fill="#FFFFFF">
                        <tspan x="212.717" y="506">0A1</tspan>
                        <tspan x="209" y="524">-003</tspan>
                    </text>
                    <text class="0A2--001" transform="translate(162.000000, 525.000000) rotate(-360.000000) translate(-162.000000, -525.000000) " font-family="PingFangSC-Bold, PingFang SC" font-size="14" font-weight="bold" line-spacing="18" fill="#FFFFFF">
                        <tspan x="148.717" y="522">0A2</tspan>
                        <tspan x="145" y="540">-001</tspan>
                    </text>
                    <text class="0A1--004" transform="translate(93.000000, 535.000000) rotate(-360.000000) translate(-93.000000, -535.000000) " font-family="PingFangSC-Bold, PingFang SC" font-size="14" font-weight="bold" line-spacing="18" fill="#FFFFFF">
                        <tspan x="79.717" y="532">0A1</tspan>
                        <tspan x="76" y="550">-004</tspan>
                    </text>
                    <text class="0A2--003" transform="translate(93.000000, 469.000000) rotate(-360.000000) translate(-93.000000, -469.000000) " font-family="PingFangSC-Bold, PingFang SC" font-size="14" font-weight="bold" line-spacing="18" fill="#FFFFFF">
                        <tspan x="79.717" y="466">0A2</tspan>
                        <tspan x="76" y="484">-003</tspan>
                    </text>
                    <text class="0B1-003" transform="translate(65.500000, 345.000000) rotate(-360.000000) translate(-65.500000, -345.000000) " font-family="PingFangSC-Bold, PingFang SC" font-size="14" font-weight="bold" line-spacing="18" fill="#FFFFFF">
                        <tspan x="35" y="351">0B1-003</tspan>
                    </text>
                    <text class="0B1--002" transform="translate(28.000000, 196.000000) rotate(-360.000000) translate(-28.000000, -196.000000) " font-family="PingFangSC-Bold, PingFang SC" font-size="14" font-weight="bold" line-spacing="18" fill="#FFFFFF">
                        <tspan x="14.626" y="193">0B1</tspan>
                        <tspan x="11" y="211">-002</tspan>
                    </text>
                    <text class="0A1--007" transform="translate(29.000000, 496.000000) rotate(-360.000000) translate(-29.000000, -496.000000) " font-family="PingFangSC-Bold, PingFang SC" font-size="14" font-weight="bold" line-spacing="18" fill="#FFFFFF">
                        <tspan x="15.717" y="493">0A1</tspan>
                        <tspan x="12" y="511">-007</tspan>
                    </text>
                    <text class="0A1--005" transform="translate(162.000000, 460.000000) rotate(-360.000000) translate(-162.000000, -460.000000) " font-family="PingFangSC-Bold, PingFang SC" font-size="14" font-weight="bold" line-spacing="18" fill="#FFFFFF">
                        <tspan x="148.717" y="457">0A1</tspan>
                        <tspan x="145" y="475">-005</tspan>
                    </text>
                    <text class="0A1--008" transform="translate(358.000000, 495.000000) rotate(-360.000000) translate(-358.000000, -495.000000) " font-family="PingFangSC-Bold, PingFang SC" font-size="14" font-weight="bold" line-spacing="18" fill="#FFFFFF">
                        <tspan x="344.717" y="492">0A1</tspan>
                        <tspan x="341" y="510">-008</tspan>
                    </text>
                    <text class="0A3--003" transform="translate(164.000000, 637.000000) rotate(-360.000000) translate(-164.000000, -637.000000) " font-family="PingFangSC-Bold, PingFang SC" font-size="14" font-weight="bold" line-spacing="18" fill="#FFFFFF">
                        <tspan x="150.717" y="634">0A3</tspan>
                        <tspan x="147" y="652">-003</tspan>
                    </text>
                    <text class="0A3--004" transform="translate(53.000000, 637.000000) rotate(-360.000000) translate(-53.000000, -637.000000) " font-family="PingFangSC-Bold, PingFang SC" font-size="14" font-weight="bold" line-spacing="18" fill="#FFFFFF">
                        <tspan x="39.717" y="634">0A3</tspan>
                        <tspan x="36" y="652">-004</tspan>
                    </text>
                    <path d="M414.999984,678.741447 L430.106984,693.848447 L420.685984,693.942447 L414.999984,688.256447 L414.999984,678.741447 Z M414.999984,660.741447 L447.927984,693.670447 L438.506984,693.764447 L414.999984,670.256447 L414.999984,660.741447 Z M414.999984,642.741447 L465.749984,693.491447 L456.328984,693.586447 L414.999984,652.256447 L414.999984,642.741447 Z M414.999984,624.741447 L483.571984,693.313447 L474.150984,693.407447 L414.999984,634.256447 L414.999984,624.741447 Z M414.999984,605.741447 L502.383984,693.125447 L491.972984,693.229447 L414.999984,616.256447 L414.999984,605.741447 Z M414.999984,587.742447 L518.588984,691.331447 L515,693 L510.784984,693.041447 L414.999984,597.256447 L414.999984,587.742447 Z M414.999984,568.742447 L531.561984,685.304447 L524.381984,688.639447 L414.999984,579.257447 L414.999984,568.742447 Z M421.256984,556.999447 L543.850984,679.593447 L537.354984,682.612447 L414.999984,560.257447 L415,557 L421.256984,556.999447 Z M439.256984,556.999447 L556.140984,673.883447 L549.644984,676.902447 L429.741984,556.999447 L439.256984,556.999447 Z M457.255984,556.999447 L568.429984,668.173447 L561.933984,671.191447 L447.741984,556.999447 L457.255984,556.999447 Z M475.255984,556.999447 L580.719984,662.462447 L574.223984,665.481447 L465.740984,556.999447 L475.255984,556.999447 Z M494.255984,556.999447 L593.691984,656.435447 L586.512984,659.771447 L483.740984,556.999447 L494.255984,556.999447 Z M512.255984,556.999447 L605.981984,650.724447 L599.485984,653.743447 L502.740984,556.999447 L512.255984,556.999447 Z M531.255984,556.999447 L613.999984,639.742447 L614,647 L611.774984,648.033447 L520.740984,556.999447 L531.255984,556.999447 Z M549.255984,556.999447 L613.999984,621.742447 L613.999984,631.257447 L539.740984,556.999447 L549.255984,556.999447 Z M567.255984,556.999447 L613.999984,603.742447 L613.999984,613.257447 L557.740984,556.999447 L567.255984,556.999447 Z M585.255984,556.999447 L613.999984,585.742447 L613.999984,595.257447 L575.740984,556.999447 L585.255984,556.999447 Z M603.255984,556.999447 L613.999984,567.742447 L613.999984,577.257447 L593.740984,556.999447 L603.255984,556.999447 Z M614,557 L613.999984,559.257447 L611.741984,556.999447 L614,557 Z" id="形状结合" fill="#555A71"></path>
                    <path d="M273,397.242 L284.758,409 L275.242,409 L273,406.758 L273,397.242 Z M273,379.242 L302.758,409 L293.242,409 L273,388.758 L273,379.242 Z M273,361.242 L320.758,409 L311.242,409 L273,370.758 L273,361.242 Z M273,343.242 L338.758,409 L329.242,409 L273,352.758 L273,343.242 Z M273,323.242 L358.758,409 L347.242,409 L273,334.758 L273,323.242 Z M273,305.242 L376.758,409 L367.242,409 L273,314.758 L273,305.242 Z M128.758,143 L394.758,409 L385.242,409 L119.242,143 L128.758,143 Z M146.758,143 L412.758,409 L403.242,409 L137.242,143 L146.758,143 Z M164.758,143 L430.758,409 L421.242,409 L155.242,143 L164.758,143 Z M182.758,143 L448.758,409 L439.242,409 L173.242,143 L182.758,143 Z M200.758,143 L466.758,409 L457.242,409 L191.242,143 L200.758,143 Z M220.758,143 L486.758,409 L475.242,409 L209.242,143 L220.758,143 Z M238.758,143 L504.758,409 L495.242,409 L229.242,143 L238.758,143 Z M256.757,143 L522.758,409 L513.242,409 L247.242,143 L256.757,143 Z M274.757,143 L540.758,409 L531.242,409 L265.241,143 L274.757,143 Z M292,142.243 L558.758,409 L549.242,409 L283.241,143 L292,143 L292,142.243 Z M292,124.243 L576.758,409 L567.242,409 L292,133.759 L292,124.243 Z M292,105.244 L595.757,409 L585.242,409 L292,115.759 L292,105.244 Z M204.45,9.208 L214.415,9.659 L612,407.243 L612,409 L604.243,409 L204.45,9.208 Z M223.303,10.061 L233.268,10.512 L612,389.243 L612,398.757 L223.303,10.061 Z M242.157,10.914 L252.122,11.365 L612,371.243 L612,380.757 L242.157,10.914 Z M261.01,11.768 L270.975,12.219 L612,353.243 L612,362.757 L261.01,11.768 Z M279.863,12.621 L289.828,13.072 L612,335.243 L612,344.757 L279.863,12.621 Z M298.717,13.474 L308.682,13.925 L612,317.243 L612,326.757 L298.717,13.474 Z M317.57,14.327 L329.63,14.873 L612,297.243 L612,308.757 L317.57,14.327 Z M71,213.241 L161.759,304 L152.243,304 L71,222.757 L71,213.241 Z M71,249.241 L125.759,304 L114.243,304 L71,260.757 L71,249.241 Z M71,269.241 L105.759,304 L96.243,304 L71,278.757 L71,269.241 Z M71,287.241 L87.759,304 L78.243,304 L71,296.757 L71,287.241 Z M71,195.241 L179.759,304 L170.243,304 L71,204.757 L71,195.241 Z M71,177.242 L197.758,304 L188.243,304 L71,186.757 L71,177.242 Z M71,159.242 L215.758,304 L206.242,304 L71,168.758 L71,159.242 Z M72.758,143 L233.758,304 L224.242,304 L71,150.758 L71,143 L72.758,143 Z M92.758,143 L253.758,304 L242.242,304 L81.242,143 L92.758,143 Z M110.758,143 L271.758,304 L262.242,304 L101.242,143 L110.758,143 Z M71,231.241 L143.759,304 L134.243,304 L71,240.757 L71,231.241 Z M466.243,143 L475.757,143 L612,279.243 L612,288.757 L466.243,143 Z M484.243,143 L493.757,143 L612,261.243 L612,270.757 L484.243,143 Z M502.243,143 L511.757,143 L612,243.243 L612,252.757 L502.243,143 Z M520.243,143 L529.757,143 L612,225.243 L612,234.757 L520.243,143 Z M538.243,143 L547.757,143 L612,207.243 L612,216.757 L538.243,143 Z M556.243,143 L565.757,143 L612,189.243 L612,198.757 L556.243,143 Z M574.243,143 L585.757,143 L612,169.243 L612,180.757 L574.243,143 Z M594.243,143 L603.757,143 L612,151.243 L612,160.757 L594.243,143 Z M338.518,15.276 L348.483,15.727 L465,132.243 L465,141.757 L338.518,15.276 Z M357.371,16.129 L367.336,16.58 L465,114.243 L465,123.757 L357.371,16.129 Z M376.225,16.982 L386.19,17.433 L465,96.243 L465,105.757 L376.225,16.982 Z M195.562,8.805 L288.756,102 L278.241,102 L184.548,8.307 L195.562,8.805 Z M1,71.242 L31.758,102 L22.242,102 L1,80.758 L1,71.242 Z M1,51.242 L51.758,102 L40.242,102 L1,62.758 L1,51.242 Z M1,33.242 L69.758,102 L60.242,102 L1,42.758 L1,33.242 Z M1,15.242 L87.758,102 L78.242,102 L1,24.758 L1,15.242 Z M1,0 L3.889,0.131 L105.758,102 L96.242,102 L1,6.758 L1,0 Z M12.775,0.533 L22.742,0.984 L123.758,102 L114.242,102 L12.775,0.533 Z M31.628,1.386 L41.595,1.837 L141.758,102 L132.242,102 L31.628,1.386 Z M50.481,2.239 L60.449,2.691 L159.758,102 L150.242,102 L50.481,2.239 Z M69.335,3.093 L81.397,3.639 L179.758,102 L168.242,102 L69.335,3.093 Z M1,89.242 L13.758,102 L4.242,102 L1,98.758 L1,89.242 Z M109.136,4.894 L119.102,5.345 L215.757,102 L206.242,102 L109.136,4.894 Z M127.989,5.747 L137.956,6.198 L233.757,102 L224.241,102 L127.989,5.747 Z M146.842,6.601 L156.809,7.052 L251.757,102 L242.241,102 L146.842,6.601 Z M165.695,7.454 L175.662,7.905 L269.757,102 L260.241,102 L165.695,7.454 Z M90.283,4.041 L100.25,4.492 L197.758,102 L188.242,102 L90.283,4.041 Z M395.078,17.835 L405.043,18.286 L465,78.243 L465,87.757 L395.078,17.835 Z M413.931,18.689 L423.896,19.14 L465,60.243 L465,69.757 L413.931,18.689 Z M432.784,19.542 L442.749,19.993 L465,42.243 L465,51.757 L432.784,19.542 Z M451.638,20.395 L463.698,20.941 L465,22.243 L465,33.757 L451.638,20.395 Z" id="形状结合备份" fill="#555A71"></path>
                </g>
            </g>
        </g>
    </g>
</svg>