<?xml version="1.0" encoding="UTF-8"?>
<svg width="48px" height="48px" viewBox="0 0 48 48" version="1.1" xmlns="http://www.w3.org/2000/svg" xmlns:xlink="http://www.w3.org/1999/xlink">
    <!-- Generator: Sketch 55.1 (78136) - https://sketchapp.com -->
    <title>icon-金额占比</title>
    <desc>Created with Sketch.</desc>
    <defs>
        <circle id="path-1" cx="24" cy="24" r="24"></circle>
    </defs>
    <g id="页面-1" stroke="none" stroke-width="1" fill="none" fill-rule="evenodd">
        <g id="05-展后处置" transform="translate(-326.000000, -749.000000)">
            <g id="下" transform="translate(240.000000, 683.000000)">
                <g id="编组-3" transform="translate(30.000000, 66.000000)">
                    <g id="icon-金额占比" transform="translate(56.000000, 0.000000)">
                        <g id="路径-3">
                            <mask id="mask-2" fill="white">
                                <use xlink:href="#path-1"></use>
                            </mask>
                            <use id="蒙版" fill="#F8A71F" xlink:href="#path-1"></use>
                        </g>
                        <path d="M30.7222222,35 C28.3596708,35 26.4444444,33.0847737 26.4444444,30.7222222 C26.4444444,28.3596708 28.3596708,26.4444444 30.7222222,26.4444444 C33.0847737,26.4444444 35,28.3596708 35,30.7222222 C35,33.0847737 33.0847737,35 30.7222222,35 Z M30.7222222,32.5555556 C31.7347443,32.5555556 32.5555556,31.7347443 32.5555556,30.7222222 C32.5555556,29.7097002 31.7347443,28.8888889 30.7222222,28.8888889 C29.7097002,28.8888889 28.8888889,29.7097002 28.8888889,30.7222222 C28.8888889,31.7347443 29.7097002,32.5555556 30.7222222,32.5555556 Z M17.2777778,21.5555556 C14.9152263,21.5555556 13,19.6403292 13,17.2777778 C13,14.9152263 14.9152263,13 17.2777778,13 C19.6403292,13 21.5555556,14.9152263 21.5555556,17.2777778 C21.5555556,19.6403292 19.6403292,21.5555556 17.2777778,21.5555556 Z M17.2777778,19.1111111 C18.2902998,19.1111111 19.1111111,18.2902998 19.1111111,17.2777778 C19.1111111,16.2652557 18.2902998,15.4444444 17.2777778,15.4444444 C16.2652557,15.4444444 15.4444444,16.2652557 15.4444444,17.2777778 C15.4444444,18.2902998 16.2652557,19.1111111 17.2777778,19.1111111 Z M32.6773004,13.5942163 C33.1546079,13.1169089 33.9284762,13.1169089 34.4057837,13.5942163 C34.8830911,14.0715238 34.8830911,14.8453921 34.4057837,15.3226996 L15.0864638,34.6420194 C14.6091564,35.1193269 13.8352881,35.1193269 13.3579806,34.6420194 C12.8806731,34.1647119 12.8806731,33.3908436 13.3579806,32.9135362 L32.6773004,13.5942163 Z" id="形状结合" fill="#FFFFFF" fill-rule="nonzero"></path>
                    </g>
                </g>
            </g>
        </g>
    </g>
</svg>